<svg id="Layer_1" data-name="Layer 1" xmlns="http://www.w3.org/2000/svg" viewBox="0 0 700.4 402.39"><defs><style>.cls-1{fill:#986b4f;}.cls-2{fill:#3c984b;}</style></defs><path class="cls-1" d="M351.42,96.68l.6,2.14a28.46,28.46,0,0,0,5.66,10.45c1.76,2.14,3.79,4,5.61,6.08a16.13,16.13,0,0,1,3.63,6.34,9.84,9.84,0,0,1-.9,7,19.82,19.82,0,0,1-3.65,5c0-1.1.14-2.09.07-3.08a6.11,6.11,0,0,0-1.39-3.5,30.4,30.4,0,0,0-4-3.81c-1.25-1.09-2.5-2.19-3.8-3.22A3.31,3.31,0,0,1,352.1,118a58.62,58.62,0,0,1-.76-9.63c-.07-3.74-.06-7.48-.08-11.22,0-.14,0-.28,0-.42Z"/><path class="cls-1" d="M326.09,137.82c2.43,4.31,6.21,6.45,10.07,8.5,2.44,1.29,5,2.4,7.12,4.29a6.09,6.09,0,0,1,2.19,6.23,13.14,13.14,0,0,1-.73,2.36c-.17.38-.32.47-.69.34-1.44-.52-2.88-1-4.33-1.51a5.93,5.93,0,0,0-2-.31c-2,0-3,1.47-2.51,3.5-1.91-.81-5.86-6.41-7.32-10.29A29.44,29.44,0,0,1,326.09,137.82Z"/><path class="cls-1" d="M375.81,138c1.77,6.33-3.35,19.51-9.07,23.27a2.93,2.93,0,0,0-.39-2.57,2.35,2.35,0,0,0-1.42-.88,4.46,4.46,0,0,0-2.35.14c-1.54.5-3.08,1-4.61,1.57-.48.17-.66,0-.83-.44a12.06,12.06,0,0,1-.82-3,6.32,6.32,0,0,1,2.34-5.43,29.28,29.28,0,0,1,5.87-3.64,42.1,42.1,0,0,0,7.75-4.82,15.31,15.31,0,0,0,3.22-3.84C375.57,138.17,375.59,138,375.81,138Z"/><path class="cls-1" d="M356.82,149.86a67.42,67.42,0,0,1,2.57-9.08,19.52,19.52,0,0,1,4-5.82c2.43-2.62,4.63-5.46,5.19-9.31a10.51,10.51,0,0,0-.13-3.58.69.69,0,0,1,0-.61,5.1,5.1,0,0,1,1.32,1.3,22.51,22.51,0,0,1,4.47,7,8.91,8.91,0,0,1-1.8,9.61,22.21,22.21,0,0,1-3.88,3.31c-2.67,1.92-5.68,3.13-8.44,4.86A25.32,25.32,0,0,0,356.82,149.86Z"/><path class="cls-1" d="M333.52,121.5c-.08.77-.21,1.54-.25,2.31a12.25,12.25,0,0,0,2.08,7.12,23.41,23.41,0,0,0,3.47,4.31,17.63,17.63,0,0,1,4.37,7.24c.78,2.44,1.32,5,2,7.45a28.81,28.81,0,0,0-5.86-3.83c-1.76-.94-3.54-1.83-5.21-2.93a20.31,20.31,0,0,1-4.9-4.22,8.77,8.77,0,0,1-1.6-8.88C328.79,126.61,331,124,333.52,121.5Z"/><path class="cls-1" d="M355.41,139.61a21.42,21.42,0,0,1-.52-3.88c-.12-1.4-.18-2.81-.41-4.19a3.57,3.57,0,0,0-3.49-3.26,3.52,3.52,0,0,0-3.52,3.2c-.39,2.28-.37,4.6-.69,6.89,0,.34-.12.67-.18,1-.11,0-.18,0-.2,0a18.67,18.67,0,0,1-3.25-6.52A6.3,6.3,0,0,1,344,128a18.22,18.22,0,0,1,2.93-3.54c1.17-1.19,2.35-2.37,3.52-3.57.31-.31.57-.49.94-.08,1.74,1.93,3.72,3.6,5.4,5.59a10.28,10.28,0,0,1,1.26,1.81,6.38,6.38,0,0,1,.68,4.84A22.62,22.62,0,0,1,355.41,139.61Z"/><path class="cls-1" d="M350.72,97.36c0-.15.06-.34-.11-.45-.21.09-.19.29-.23.45a29.35,29.35,0,0,1-2.54,6.73,34.67,34.67,0,0,1-3.73,5.44l-2,2.14a57.35,57.35,0,0,0-5.18,5.91,10.48,10.48,0,0,0-2,8.25,13.9,13.9,0,0,0,3,6,9.6,9.6,0,0,0,1.67,1.84,1.4,1.4,0,0,0,0-.32,8,8,0,0,1,3-8c1.82-1.51,3.59-3.11,5.38-4.67,0-.17.11-.22.25-.21l0,0a3.47,3.47,0,0,0,1.54-2.21,44,44,0,0,0,.68-6.46C350.81,106.94,350.71,102.15,350.72,97.36Z"/><path class="cls-1" d="M377.12,135.2v0h0Z"/><path class="cls-1" d="M331.84,119.82l2.46-2.45c.22-.38.45-.76.71-1.13a38.51,38.51,0,0,1,4-4.73c.45-.48.92-1,1.36-1.45l1.91-2.08a33.09,33.09,0,0,0,3.43-5,27.2,27.2,0,0,0,2.32-6.13c.23-.6.6-1.49.81-2a1.26,1.26,0,0,1,.53-.61,3.88,3.88,0,0,1,3.14-.34,1.17,1.17,0,0,1,.8.8c.28,1,.87,3.09,1,3.46a26,26,0,0,0,5.21,9.57c.93,1.13,1.94,2.18,3,3.3.84.87,1.71,1.78,2.54,2.73a20.17,20.17,0,0,1,3.29,4.93l1.22.65a6,6,0,0,1,1.78,1.58l.21.25a29.64,29.64,0,0,1,3.76,5.2L350.81,5.61l-25,122.5A26.66,26.66,0,0,1,331.84,119.82Z"/><path class="cls-1" d="M348,120.64c0-.17.11-.22.25-.21Z"/><path class="cls-2" d="M265.66,29.13h60l-7.27,125.73a7.8,7.8,0,0,0,1.4,4.93,36.47,36.47,0,0,0,31.36,15.5c16.57-.38,30.64-9,30.82-17.42s-7.17-128.74-7.17-128.74h60L407.42,191.61s-11.56-8.62-19.81,0-15.53,23.53-37.41,24c-18,.41-33.05-15.93-40-25.71-4.64-6.57-16.85,1.72-17.95,1.8C291.36,191.81,265.66,29.13,265.66,29.13Z"/><path class="cls-2" d="M49.83,323a31,31,0,0,1-15.77-4.28,25.06,25.06,0,0,1-6-4.92,22.06,22.06,0,0,1-4-6.41,6.3,6.3,0,0,1,0-5,6.4,6.4,0,0,1,3.61-3.5,6.48,6.48,0,0,1,6,.6,6.42,6.42,0,0,1,2.49,3,9.77,9.77,0,0,0,2,2.95,12.7,12.7,0,0,0,3.09,2.36,16.55,16.55,0,0,0,4,1.55,18.67,18.67,0,0,0,4.56.56,17.77,17.77,0,0,0,5.52-.85,16.53,16.53,0,0,0,4.57-2.26,10.89,10.89,0,0,0,3-3.24A7.35,7.35,0,0,0,64,299.73a6,6,0,0,0-.56-2.51,6.9,6.9,0,0,0-2.17-2.41,24.21,24.21,0,0,0-4.87-2.65,72.59,72.59,0,0,0-8.34-2.87c-1.47-.46-3.13-1-4.94-1.59a56.4,56.4,0,0,1-5.54-2.16,42.25,42.25,0,0,1-5.47-3,24.29,24.29,0,0,1-4.82-4.07,19.13,19.13,0,0,1-3.42-5.37,17.42,17.42,0,0,1-1.31-6.89,19.74,19.74,0,0,1,2.16-9.07,23.62,23.62,0,0,1,5.89-7.39,28.27,28.27,0,0,1,8.68-5A30.68,30.68,0,0,1,49.83,243a31.75,31.75,0,0,1,8.06,1,30.73,30.73,0,0,1,7.21,2.9A25.39,25.39,0,0,1,71,251.48a22.49,22.49,0,0,1,4.16,6,6.44,6.44,0,0,1,.2,5,6.54,6.54,0,0,1-3.32,3.72,6.74,6.74,0,0,1-2.76.65,6.68,6.68,0,0,1-6-3.84,10.49,10.49,0,0,0-2-2.85A12.65,12.65,0,0,0,58.18,258a17.37,17.37,0,0,0-3.92-1.46,19.18,19.18,0,0,0-4.43-.52,17.82,17.82,0,0,0-5.52.84,16.12,16.12,0,0,0-4.56,2.29,11.29,11.29,0,0,0-3,3.28,7.29,7.29,0,0,0-1.06,3.79,4.83,4.83,0,0,0,.78,2.67,9.38,9.38,0,0,0,2.64,2.56,27.51,27.51,0,0,0,5,2.61c2.1.87,4.68,1.77,7.65,2.67,1.32.37,2.88.83,4.6,1.37a57.89,57.89,0,0,1,5.44,2.06,44.7,44.7,0,0,1,5.5,2.91,23.68,23.68,0,0,1,4.93,4.11,20,20,0,0,1,3.53,5.47,17.76,17.76,0,0,1,1.35,7.07A19.87,19.87,0,0,1,75,308.8a24,24,0,0,1-5.89,7.39,28.57,28.57,0,0,1-8.65,5A30.62,30.62,0,0,1,49.83,323Z"/><path class="cls-2" d="M51.48,277.67c1.32.36,2.85.82,4.59,1.37a54.76,54.76,0,0,1,5.34,2,42.72,42.72,0,0,1,5.38,2.84,22.57,22.57,0,0,1,4.72,3.94,18.85,18.85,0,0,1,3.36,5.21,16.68,16.68,0,0,1,1.27,6.68,18.79,18.79,0,0,1-2.06,8.63,22.74,22.74,0,0,1-5.65,7.09,27.29,27.29,0,0,1-8.36,4.79A29.37,29.37,0,0,1,49.83,322a30,30,0,0,1-15.28-4.14,24,24,0,0,1-5.75-4.73A21.49,21.49,0,0,1,25,307a5.59,5.59,0,0,1,5.14-7.67,5.65,5.65,0,0,1,5.21,3.49,10.6,10.6,0,0,0,2.16,3.25,13.47,13.47,0,0,0,3.32,2.54A17,17,0,0,0,45,310.24a19.58,19.58,0,0,0,4.79.59,18.47,18.47,0,0,0,5.82-.9,17.3,17.3,0,0,0,4.83-2.39A11.69,11.69,0,0,0,63.77,304a8.27,8.27,0,0,0,1.2-4.28,6.86,6.86,0,0,0-.65-2.91A7.76,7.76,0,0,0,61.85,294a24.91,24.91,0,0,0-5.07-2.77,71.5,71.5,0,0,0-8.46-2.91q-2.19-.69-4.89-1.58A55.07,55.07,0,0,1,38,284.66a40.88,40.88,0,0,1-5.34-2.92,23,23,0,0,1-4.63-3.9,18.1,18.1,0,0,1-3.25-5.1,16.43,16.43,0,0,1-1.23-6.51,18.76,18.76,0,0,1,2-8.63,22.63,22.63,0,0,1,5.65-7.09,27.15,27.15,0,0,1,8.39-4.8A29.72,29.72,0,0,1,49.83,244a30.57,30.57,0,0,1,7.81,1,29.47,29.47,0,0,1,7,2.81,24.58,24.58,0,0,1,5.68,4.38,21.33,21.33,0,0,1,4,5.79,5.49,5.49,0,0,1,.17,4.28,5.61,5.61,0,0,1-2.84,3.19,5.85,5.85,0,0,1-2.33.54,5.62,5.62,0,0,1-3-.85,5.56,5.56,0,0,1-2.16-2.43,11.24,11.24,0,0,0-2.23-3.12,13.21,13.21,0,0,0-3.29-2.4,18,18,0,0,0-4.14-1.54,19.49,19.49,0,0,0-4.66-.55A18.81,18.81,0,0,0,44,256a17.1,17.1,0,0,0-4.83,2.43A12.19,12.19,0,0,0,35.89,262a8.22,8.22,0,0,0-1.2,4.28,5.84,5.84,0,0,0,.93,3.18,10,10,0,0,0,2.91,2.85,28.76,28.76,0,0,0,5.2,2.7C45.88,275.85,48.46,276.76,51.48,277.67Z"/><path class="cls-2" d="M131.3,323a6.45,6.45,0,0,1-6.51-6.52V299.73a9.87,9.87,0,0,0-.81-4,10.92,10.92,0,0,0-2.2-3.24,10.54,10.54,0,0,0-3.23-2.19,9.71,9.71,0,0,0-4-.81H97v26.91a6.25,6.25,0,0,1-1.93,4.63A6.42,6.42,0,0,1,90.41,323a6.45,6.45,0,0,1-6.52-6.52V249.51A6.47,6.47,0,0,1,90.41,243h24.18a22.77,22.77,0,0,1,9.08,1.83,23.55,23.55,0,0,1,12.39,12.39,23.12,23.12,0,0,1-.32,18.75,23.81,23.81,0,0,1-5,7,23.86,23.86,0,0,1,5,7,22.65,22.65,0,0,1,2.15,9.77v16.71a6.22,6.22,0,0,1-1.94,4.63A6.38,6.38,0,0,1,131.3,323Zm-16.71-46.54a9.87,9.87,0,0,0,4-.8,10.49,10.49,0,0,0,5.43-5.43,10.08,10.08,0,0,0,0-7.92,10.73,10.73,0,0,0-2.2-3.24,10.54,10.54,0,0,0-3.23-2.19,9.71,9.71,0,0,0-4-.81H97v20.39Z"/><path class="cls-2" d="M136.92,266.23a21.35,21.35,0,0,1-2,9.31,22.76,22.76,0,0,1-5.55,7.4,22.82,22.82,0,0,1,5.55,7.44,21.59,21.59,0,0,1,2,9.35v16.71a5.31,5.31,0,0,1-1.64,3.94,5.45,5.45,0,0,1-4,1.61,5.5,5.5,0,0,1-5.55-5.55V299.73a10.52,10.52,0,0,0-.89-4.35,11.41,11.41,0,0,0-2.39-3.53,11.86,11.86,0,0,0-3.53-2.4,10.75,10.75,0,0,0-4.35-.89H96v27.88a5.31,5.31,0,0,1-1.64,3.94,5.45,5.45,0,0,1-4,1.61,5.5,5.5,0,0,1-5.55-5.55V249.51A5.5,5.5,0,0,1,90.41,244h24.18a21.81,21.81,0,0,1,8.7,1.75,22.57,22.57,0,0,1,11.88,11.89A21.41,21.41,0,0,1,136.92,266.23Zm-22.33,11.16a10.58,10.58,0,0,0,4.35-.89,11.65,11.65,0,0,0,3.53-2.39,11.53,11.53,0,0,0,2.39-3.53,11.08,11.08,0,0,0,0-8.7,11.41,11.41,0,0,0-2.39-3.53,11.86,11.86,0,0,0-3.53-2.4,10.75,10.75,0,0,0-4.35-.89H96v22.33Z"/><path class="cls-2" d="M152.26,323a6.45,6.45,0,0,1-6.51-6.52V249.51a6.47,6.47,0,0,1,6.51-6.52,6.46,6.46,0,0,1,4.66,1.89,6.28,6.28,0,0,1,1.93,4.63v66.93a6.25,6.25,0,0,1-1.93,4.63A6.42,6.42,0,0,1,152.26,323Z"/><path class="cls-2" d="M152.26,244a5.49,5.49,0,0,1,4,1.61,5.34,5.34,0,0,1,1.64,3.94v66.93a5.31,5.31,0,0,1-1.64,3.94,5.45,5.45,0,0,1-4,1.61,5.5,5.5,0,0,1-5.54-5.55V249.51a5.5,5.5,0,0,1,5.54-5.55Z"/><path class="cls-2" d="M277.66,323a58.81,58.81,0,0,1-16.68-2.4,63.64,63.64,0,0,1-15.27-6.82,64.33,64.33,0,0,1-13.08-10.68,63.3,63.3,0,0,1-9.74-13.53h-18v26.91a6.22,6.22,0,0,1-1.94,4.63,6.63,6.63,0,0,1-9.27,0,6.32,6.32,0,0,1-1.9-4.63V249.51a6.49,6.49,0,0,1,6.52-6.52h24.18a22.78,22.78,0,0,1,9.09,1.83,23.55,23.55,0,0,1,12.39,12.39,23.22,23.22,0,0,1-1.18,20.47,24.18,24.18,0,0,1-7.15,7.76,50.54,50.54,0,0,0,17.59,17.74,48.66,48.66,0,0,0,11.69,5,47.16,47.16,0,0,0,12.79,1.74,46.33,46.33,0,0,0,9.5-1,50.36,50.36,0,0,0,9.17-2.86,6.11,6.11,0,0,1,2.57-.55,6.57,6.57,0,0,1,3.56,1,6.35,6.35,0,0,1,2.46,2.9,6.46,6.46,0,0,1,.05,5,6.54,6.54,0,0,1-3.48,3.57,61.44,61.44,0,0,1-11.68,3.66A60.62,60.62,0,0,1,277.66,323Zm-55.22-46.54a9.8,9.8,0,0,0,4-.8,10.73,10.73,0,0,0,3.24-2.2,10.54,10.54,0,0,0,2.19-3.23,9.71,9.71,0,0,0,.81-4,9.48,9.48,0,0,0-.81-3.89,10.3,10.3,0,0,0-5.43-5.43,9.71,9.71,0,0,0-4-.81H204.85v20.32Zm53.92,22.22a21.61,21.61,0,0,1-8.54-1.72,21.91,21.91,0,0,1-11.67-11.64,21.38,21.38,0,0,1-1.72-8.5V249.51a6,6,0,0,1,11.94,0v27.27a9.74,9.74,0,0,0,.77,3.86,9.85,9.85,0,0,0,2.15,3.15,10.41,10.41,0,0,0,3.2,2.13,9.66,9.66,0,0,0,3.87.78,9.88,9.88,0,0,0,3.9-.78,10.38,10.38,0,0,0,3.23-2.13,9.85,9.85,0,0,0,2.15-3.15,9.65,9.65,0,0,0,.78-3.86V249.51a5.85,5.85,0,0,1,1.71-4.2,6,6,0,0,1,10.23,4.2v27.27a21.34,21.34,0,0,1-1.72,8.5,22.19,22.19,0,0,1-4.73,7,22.68,22.68,0,0,1-7,4.69A21.56,21.56,0,0,1,276.36,298.64Z"/><path class="cls-2" d="M304,309.87a5.44,5.44,0,0,1,0,4.28,5.6,5.6,0,0,1-3,3.05A59.31,59.31,0,0,1,277.66,322a57.68,57.68,0,0,1-16.41-2.36,61.86,61.86,0,0,1-15-6.72,63.27,63.27,0,0,1-12.88-10.51,62.22,62.22,0,0,1-9.87-13.84H203.88v27.88a5.31,5.31,0,0,1-1.64,3.94,5.47,5.47,0,0,1-4,1.61,5.5,5.5,0,0,1-5.55-5.55V249.51a5.5,5.5,0,0,1,5.55-5.55h24.18a21.74,21.74,0,0,1,8.7,1.75A22.54,22.54,0,0,1,243,257.6a22.23,22.23,0,0,1-1.13,19.59,23.07,23.07,0,0,1-7.6,7.95,51.79,51.79,0,0,0,8.11,10.78A51.17,51.17,0,0,0,252.69,304a49,49,0,0,0,11.92,5.1,48.38,48.38,0,0,0,22.74.79A51,51,0,0,0,296.7,307a5.16,5.16,0,0,1,2.2-.48,5.64,5.64,0,0,1,3.05.89A5.36,5.36,0,0,1,304,309.87ZM203.88,277.39h18.56a10.52,10.52,0,0,0,4.35-.89,11.34,11.34,0,0,0,5.93-5.92,10.75,10.75,0,0,0,.89-4.35,10.52,10.52,0,0,0-.89-4.28,11.4,11.4,0,0,0-5.93-5.93,10.68,10.68,0,0,0-4.35-.89H203.88Zm72.48,20.28a20.53,20.53,0,0,1-8.15-1.64A21,21,0,0,1,257,284.9a20.22,20.22,0,0,1-1.64-8.12V249.51a4.88,4.88,0,0,1,1.43-3.53,5,5,0,0,1,8.57,3.53v27.27a10.6,10.6,0,0,0,3.22,7.7,11.24,11.24,0,0,0,3.49,2.33,10.49,10.49,0,0,0,4.25.86,10.7,10.7,0,0,0,4.28-.86,11.19,11.19,0,0,0,3.53-2.33,10.71,10.71,0,0,0,3.22-7.7V249.51a4.89,4.89,0,0,1,1.44-3.53,4.78,4.78,0,0,1,3.56-1.47,5,5,0,0,1,5,5v27.27a20.39,20.39,0,0,1-1.64,8.12,20.94,20.94,0,0,1-4.53,6.64,21.36,21.36,0,0,1-6.71,4.49A20.57,20.57,0,0,1,276.36,297.67Z"/><path class="cls-2" d="M318.12,323a6.22,6.22,0,0,1-4.63-1.94,6.38,6.38,0,0,1-1.89-4.65V249.51a6.47,6.47,0,0,1,6.52-6.52,6.46,6.46,0,0,1,4.65,1.89,6.28,6.28,0,0,1,1.93,4.63v25l29.59-29.59A6.36,6.36,0,0,1,359,243a6.84,6.84,0,0,1,2.48.48,6,6,0,0,1,2.14,1.48,6.51,6.51,0,0,1,0,9.22L334.9,282.81l28.84,28.84a6.51,6.51,0,0,1,0,9.25,6.51,6.51,0,0,1-7.07,1.44,6.62,6.62,0,0,1-2.18-1.44L324.7,291.11v25.33a6.57,6.57,0,0,1-6.58,6.59Z"/><path class="cls-2" d="M363.06,312.33a5.57,5.57,0,1,1-7.88,7.88l-31.45-31.44v27.67a5.6,5.6,0,0,1-5.61,5.62,5.31,5.31,0,0,1-3.94-1.64,5.45,5.45,0,0,1-1.61-4V249.51a5.5,5.5,0,0,1,5.55-5.55,5.49,5.49,0,0,1,4,1.61,5.3,5.3,0,0,1,1.64,3.94v27.34L355,245.61a5.41,5.41,0,0,1,4-1.65,5.71,5.71,0,0,1,2.12.41,4.81,4.81,0,0,1,1.78,1.24,5.53,5.53,0,0,1,0,7.88l-29.32,29.32Z"/><path class="cls-2" d="M422.31,323a6.47,6.47,0,0,1-6.52-6.52V289H383.62v27.46a6.22,6.22,0,0,1-1.94,4.63A6.4,6.4,0,0,1,377,323a6.47,6.47,0,0,1-6.52-6.52V249.51a6.44,6.44,0,0,1,1.89-4.65,6.28,6.28,0,0,1,4.63-1.93,6.57,6.57,0,0,1,6.59,6.58V277h32.17V249.51a6.44,6.44,0,0,1,1.89-4.65,6.28,6.28,0,0,1,4.63-1.93,6.57,6.57,0,0,1,6.59,6.58v66.93a6.22,6.22,0,0,1-1.94,4.63A6.38,6.38,0,0,1,422.31,323Z"/><path class="cls-2" d="M422.31,243.89a5.62,5.62,0,0,1,5.62,5.62v66.93a5.31,5.31,0,0,1-1.64,3.94,5.45,5.45,0,0,1-4,1.61,5.5,5.5,0,0,1-5.55-5.55V288H382.65v28.43a5.28,5.28,0,0,1-1.65,3.94,5.43,5.43,0,0,1-4,1.61,5.5,5.5,0,0,1-5.55-5.55V249.51a5.49,5.49,0,0,1,1.61-4,5.29,5.29,0,0,1,3.94-1.65,5.63,5.63,0,0,1,5.62,5.62v28.43h34.11V249.51a5.49,5.49,0,0,1,1.61-4A5.31,5.31,0,0,1,422.31,243.89Z"/><path class="cls-2" d="M488.9,323a6.59,6.59,0,0,1-3.69-1.12,6.19,6.19,0,0,1-2.43-3.15L477,302.75H452.24l-5.79,15.94a6.19,6.19,0,0,1-2.43,3.15,6.59,6.59,0,0,1-3.69,1.12,8,8,0,0,1-1.1-.08,4.51,4.51,0,0,1-1.2-.34,6.77,6.77,0,0,1-2.19-1.34,6.46,6.46,0,0,1-1.49-2,6.58,6.58,0,0,1-.6-2.4,6.19,6.19,0,0,1,.4-2.6l24.31-66.92a6.73,6.73,0,0,1,2.36-3.12,6.21,6.21,0,0,1,3.76-1.21,6.37,6.37,0,0,1,3.78,1.2,6.59,6.59,0,0,1,2.4,3.12l24.33,66.94a6.45,6.45,0,0,1,.4,2.59,6.8,6.8,0,0,1-.61,2.4,6.46,6.46,0,0,1-1.49,2,6.84,6.84,0,0,1-2.2,1.34A5.58,5.58,0,0,1,488.9,323Zm-16.25-32.15-8.07-22.15-8,22.15Z"/><path class="cls-2" d="M494.18,314.52a5.47,5.47,0,0,1,.34,2.2,5.69,5.69,0,0,1-.52,2,5.2,5.2,0,0,1-1.26,1.71,5.86,5.86,0,0,1-1.92,1.17,4.62,4.62,0,0,1-1.92.34,5.56,5.56,0,0,1-3.15-1,5.31,5.31,0,0,1-2.06-2.67l-6-16.58h-26.1l-6,16.58a5.25,5.25,0,0,1-2.06,2.67,5.56,5.56,0,0,1-3.15,1,6.2,6.2,0,0,1-1-.07,3.46,3.46,0,0,1-1-.27,5.86,5.86,0,0,1-1.92-1.17,5.34,5.34,0,0,1-1.26-1.71,5.69,5.69,0,0,1-.52-2,5.32,5.32,0,0,1,.35-2.2l24.31-66.93a5.84,5.84,0,0,1,2-2.67,5.26,5.26,0,0,1,3.18-1,5.44,5.44,0,0,1,3.22,1,5.7,5.7,0,0,1,2.06,2.67ZM474,291.78l-9.46-26-9.38,26Z"/><path class="cls-2" d="M562.27,323a6.31,6.31,0,0,1-4.58-1.89,6.22,6.22,0,0,1-1.94-4.63V274l-15.52,26.81a6.57,6.57,0,0,1-2.37,2.4,6.3,6.3,0,0,1-3.27.89,6.44,6.44,0,0,1-3.29-.88,6.63,6.63,0,0,1-2.41-2.41L513.44,274v42.48a6.26,6.26,0,0,1-1.94,4.63,6.53,6.53,0,0,1-11.17-4.63V249.51a6.29,6.29,0,0,1,1.37-4,6.36,6.36,0,0,1,5.17-2.58,6.69,6.69,0,0,1,2.51.5,6.49,6.49,0,0,1,3.17,2.77l22,38.15,22-38.14a6.42,6.42,0,0,1,3.17-2.78,6.6,6.6,0,0,1,4.21-.28,7,7,0,0,1,3.46,2.36,6.3,6.3,0,0,1,1.38,4v66.93a6.22,6.22,0,0,1-1.94,4.63A6.4,6.4,0,0,1,562.27,323Z"/><path class="cls-2" d="M563.78,244.1a5.91,5.91,0,0,1,2.94,2,5.29,5.29,0,0,1,1.17,3.39v66.93a5.28,5.28,0,0,1-1.65,3.94,5.43,5.43,0,0,1-4,1.61,5.38,5.38,0,0,1-3.91-1.61,5.31,5.31,0,0,1-1.64-3.94v-46.1l-17.33,29.93a5.62,5.62,0,0,1-2,2.06,5.37,5.37,0,0,1-2.78.75,5.58,5.58,0,0,1-4.86-2.81l-17.26-29.93v46.1a5.28,5.28,0,0,1-1.65,3.94,5.43,5.43,0,0,1-4,1.61,5.5,5.5,0,0,1-5.55-5.55V249.51a5.34,5.34,0,0,1,1.16-3.39,5.94,5.94,0,0,1,3-2,5.56,5.56,0,0,1,3.6.24,5.5,5.5,0,0,1,2.7,2.36l22.88,39.6,22.88-39.6a5.64,5.64,0,0,1,6.31-2.6Z"/><path class="cls-2" d="M584,323a6.45,6.45,0,0,1-6.51-6.52V249.51A6.47,6.47,0,0,1,584,243a6.46,6.46,0,0,1,4.66,1.89,6.28,6.28,0,0,1,1.93,4.63v66.93a6.25,6.25,0,0,1-1.93,4.63A6.42,6.42,0,0,1,584,323Z"/><path class="cls-2" d="M584,244a5.49,5.49,0,0,1,4,1.61,5.34,5.34,0,0,1,1.64,3.94v66.93a5.31,5.31,0,0,1-1.64,3.94,5.45,5.45,0,0,1-4,1.61,5.5,5.5,0,0,1-5.54-5.55V249.51A5.5,5.5,0,0,1,584,244Z"/><path class="cls-2" d="M649.61,323a6.62,6.62,0,0,1-3.08-.76,6.13,6.13,0,0,1-2.39-2.15l-31.85-48.59v45a6.22,6.22,0,0,1-1.94,4.63A6.4,6.4,0,0,1,605.7,323a6.47,6.47,0,0,1-6.52-6.52V249.51a6.23,6.23,0,0,1,1.94-4.67,6.53,6.53,0,0,1,4.65-1.85,6.3,6.3,0,0,1,5.45,2.89L643,294.49v-45a6.28,6.28,0,0,1,1.93-4.63,6.46,6.46,0,0,1,4.65-1.89,6.47,6.47,0,0,1,6.52,6.52v66.93a6.31,6.31,0,0,1-1.9,4.67A6.38,6.38,0,0,1,649.61,323Z"/><path class="cls-2" d="M649.61,244a5.5,5.5,0,0,1,5.55,5.55v66.93a5.35,5.35,0,0,1-1.61,4,5.42,5.42,0,0,1-3.94,1.57,5.66,5.66,0,0,1-2.64-.65,5.27,5.27,0,0,1-2-1.81l-33.63-51.32v48.23a5.28,5.28,0,0,1-1.65,3.94,5.43,5.43,0,0,1-4,1.61,5.5,5.5,0,0,1-5.55-5.55V249.51a5.28,5.28,0,0,1,1.64-4,5.57,5.57,0,0,1,4-1.58,5.4,5.4,0,0,1,4.66,2.47L644,297.74V249.51a5.3,5.3,0,0,1,1.64-3.94A5.49,5.49,0,0,1,649.61,244Z"/><path class="cls-2" d="M671.26,323a6.45,6.45,0,0,1-6.52-6.52V249.51a6.47,6.47,0,0,1,6.52-6.52,6.46,6.46,0,0,1,4.65,1.89,6.28,6.28,0,0,1,1.93,4.63v66.93a6.25,6.25,0,0,1-1.93,4.63A6.4,6.4,0,0,1,671.26,323Z"/><path class="cls-2" d="M671.26,244a5.47,5.47,0,0,1,4,1.61,5.31,5.31,0,0,1,1.65,3.94v66.93a5.28,5.28,0,0,1-1.65,3.94,5.43,5.43,0,0,1-4,1.61,5.5,5.5,0,0,1-5.55-5.55V249.51a5.5,5.5,0,0,1,5.55-5.55Z"/><path class="cls-2" d="M282.93,274.15a6.54,6.54,0,1,1-13.07,0c0-3.6,2.92-20.66,6.53-20.66S282.93,270.55,282.93,274.15Z"/><path class="cls-1" d="M48.45,350.85a2.44,2.44,0,0,1,.72,3.38L38.68,370.32v12a2.44,2.44,0,1,1-4.88,0v-12L23.31,354.23a2.44,2.44,0,0,1-.35-1.84A2.27,2.27,0,0,1,24,350.85a2.43,2.43,0,0,1,1.33-.39,2.52,2.52,0,0,1,1.16.29,2.36,2.36,0,0,1,.92.83l8.8,13.5,8.8-13.5a2.43,2.43,0,0,1,.92-.83,2.55,2.55,0,0,1,1.16-.29A2.38,2.38,0,0,1,48.45,350.85Z"/><path class="cls-1" d="M80.49,350.46a15.13,15.13,0,0,1,6.3,1.34,16,16,0,0,1,5.14,3.68,17.66,17.66,0,0,1,4.75,12.13,17.78,17.78,0,0,1-2.2,8.67,16.49,16.49,0,0,1-2.55,3.48,16.73,16.73,0,0,1-3.28,2.68,16,16,0,0,1-3.86,1.74,15.43,15.43,0,0,1-8.59,0,16,16,0,0,1-3.86-1.74,16.7,16.7,0,0,1-5.83-6.16,17.46,17.46,0,0,1-1.63-4.1,18.05,18.05,0,0,1-.57-4.57,17.31,17.31,0,0,1,1.28-6.68,17.83,17.83,0,0,1,3.46-5.45,16.14,16.14,0,0,1,5.14-3.68A15.13,15.13,0,0,1,80.49,350.46Zm0,29.42a10.29,10.29,0,0,0,4.41-1,11.56,11.56,0,0,0,3.57-2.63,12.45,12.45,0,0,0,2.41-3.9,12.93,12.93,0,0,0,.89-4.78,12.86,12.86,0,0,0-3.3-8.66,11.28,11.28,0,0,0-3.57-2.64,10.42,10.42,0,0,0-8.78,0A11.32,11.32,0,0,0,72.54,359a12.36,12.36,0,0,0-2.43,3.9,12.79,12.79,0,0,0-.89,4.76,12.93,12.93,0,0,0,.89,4.78,12.14,12.14,0,0,0,2.43,3.9,11.61,11.61,0,0,0,3.58,2.63A10.21,10.21,0,0,0,80.49,379.88Z"/><path class="cls-1" d="M144,367.85a2.54,2.54,0,0,1,1,.23,2.58,2.58,0,0,1,.86.65,2.39,2.39,0,0,1,.54,2,17.83,17.83,0,0,1-2,5.65,16.93,16.93,0,0,1-3.57,4.44,16.2,16.2,0,0,1-4.78,2.93,15.11,15.11,0,0,1-5.61,1.05,14.88,14.88,0,0,1-4.29-.61,15.84,15.84,0,0,1-3.86-1.74,16.7,16.7,0,0,1-5.83-6.16,17.46,17.46,0,0,1-1.63-4.1,18.05,18.05,0,0,1-.58-4.57,17.32,17.32,0,0,1,1.29-6.68,17.83,17.83,0,0,1,3.46-5.45,16.17,16.17,0,0,1,5.14-3.69,14.84,14.84,0,0,1,6.3-1.36,15.16,15.16,0,0,1,6.51,1.45,16,16,0,0,1,5.4,4.1,2.41,2.41,0,0,1,.59,1.79,2.35,2.35,0,0,1-.86,1.67,1.83,1.83,0,0,1-.76.47,2.74,2.74,0,0,1-.84.14,2.33,2.33,0,0,1-1.84-.85,11.3,11.3,0,0,0-3.74-2.86,10.21,10.21,0,0,0-4.46-1,10,10,0,0,0-4.37,1,11.37,11.37,0,0,0-3.59,2.64,12.8,12.8,0,0,0-3.31,8.66,12.73,12.73,0,0,0,.89,4.78,12.29,12.29,0,0,0,2.42,3.9,11.65,11.65,0,0,0,3.59,2.63,10.48,10.48,0,0,0,7.61.45,11.25,11.25,0,0,0,2.9-1.45,11.51,11.51,0,0,0,2.39-2.24,11.82,11.82,0,0,0,1.72-2.91H130.62a2.48,2.48,0,0,1-2.47-2.48,2.33,2.33,0,0,1,.72-1.73,2.44,2.44,0,0,1,1.75-.71Z"/><path class="cls-1" d="M188,381.51a2.3,2.3,0,0,1,.15,1,2.54,2.54,0,0,1-.23.91,2.24,2.24,0,0,1-.56.75,2.56,2.56,0,0,1-.84.51,2,2,0,0,1-.84.15,2.45,2.45,0,0,1-1.39-.42,2.3,2.3,0,0,1-.9-1.17l-2.66-7.3H169.24l-2.65,7.3a2.37,2.37,0,0,1-.91,1.17,2.45,2.45,0,0,1-1.39.42l-.42,0a1.66,1.66,0,0,1-.42-.12,2.56,2.56,0,0,1-.84-.51,2.38,2.38,0,0,1-.56-.75,2.54,2.54,0,0,1-.23-.91,2.3,2.3,0,0,1,.15-1l10.7-29.45a2.62,2.62,0,0,1,.89-1.18,2.43,2.43,0,0,1,2.82,0,2.52,2.52,0,0,1,.91,1.18Zm-8.86-10L175,360.08l-4.13,11.42Z"/><path class="cls-1" d="M261,387.08c-1.14-1.14-2.23-2.29-3.79-4a16.69,16.69,0,0,1-11.88,4.64c-7.9,0-12.48-5.31-12.48-11.4,0-5.54,3.32-9.34,8-11.87v-.18a14,14,0,0,1-3.38-8.5,9.86,9.86,0,0,1,10.31-10c5.07,0,9,3.38,9,8.62,0,4.28-2.47,7.66-8.92,10.85v.18c3.44,4,7.3,8.44,9.89,11.34,1.87-2.84,3.13-6.76,3.92-11.88h4.82c-1.09,6.39-2.83,11.45-5.85,15,2.17,2.29,4.28,4.58,6.69,7.17Zm-6.39-7c-2.41-2.65-6.93-7.59-11.45-12.78-2.17,1.39-5.24,4-5.24,8.26a8,8,0,0,0,8.31,8.2A11.35,11.35,0,0,0,254.63,380.09Zm-12.35-24.78c0,2.9,1.32,5.13,3.07,7.3,4.1-2.35,6.75-4.52,6.75-8,0-2.47-1.38-5.24-4.7-5.24S242.28,352.18,242.28,355.31Z"/><path class="cls-1" d="M319.44,387.08l-10.31-40.63h5.55L319.5,367c1.21,5.06,2.29,10.13,3,14.05h.12c.66-4,1.93-8.87,3.31-14.11l5.43-20.5h5.49l4.94,20.62c1.14,4.82,2.23,9.65,2.83,13.93h.12c.85-4.47,2-9,3.26-14.05l5.36-20.5h5.37l-11.52,40.63h-5.48l-5.13-21.16A122.83,122.83,0,0,1,334,352.66h-.12a127.37,127.37,0,0,1-3.13,13.26l-5.79,21.16Z"/><path class="cls-1" d="M399.93,368h-15.8v14.65h17.61v4.4H378.89V346.45h21.94v4.4h-16.7v12.84h15.8Z"/><path class="cls-1" d="M423.62,346.45h5.25v36.23h17.36v4.4H423.62Z"/><path class="cls-1" d="M467.15,346.45h5.24v36.23h17.36v4.4h-22.6Z"/><path class="cls-1" d="M510.67,387.08V346.45h5.73l13,20.56a114.12,114.12,0,0,1,7.3,13.2l.12-.06c-.48-5.42-.61-10.37-.61-16.7v-17h4.95v40.63h-5.31L523,366.47a129.57,129.57,0,0,1-7.59-13.57l-.18.06c.3,5.13.42,10,.42,16.76v17.36Z"/><path class="cls-1" d="M586.45,368H570.66v14.65h17.6v4.4H565.41V346.45h22v4.4h-16.7v12.84h15.79Z"/><path class="cls-1" d="M609.42,380.69a18.6,18.6,0,0,0,9.41,2.66c5.36,0,8.5-2.84,8.5-6.94,0-3.79-2.17-6-7.66-8.07-6.63-2.36-10.73-5.79-10.73-11.52,0-6.33,5.25-11,13.14-11a18.44,18.44,0,0,1,9,2l-1.45,4.28a16.24,16.24,0,0,0-7.72-1.93c-5.54,0-7.65,3.32-7.65,6.09,0,3.8,2.47,5.67,8.08,7.84,6.87,2.65,10.36,6,10.36,11.93,0,6.27-4.64,11.7-14.22,11.7-3.92,0-8.2-1.15-10.37-2.6Z"/><path class="cls-1" d="M654.22,380.69a18.56,18.56,0,0,0,9.4,2.66c5.37,0,8.5-2.84,8.5-6.94,0-3.79-2.17-6-7.65-8.07-6.63-2.36-10.73-5.79-10.73-11.52,0-6.33,5.24-11,13.14-11a18.39,18.39,0,0,1,9,2l-1.45,4.28a16.19,16.19,0,0,0-7.71-1.93c-5.55,0-7.66,3.32-7.66,6.09,0,3.8,2.47,5.67,8.08,7.84,6.87,2.65,10.37,6,10.37,11.93,0,6.27-4.64,11.7-14.23,11.7-3.92,0-8.2-1.15-10.37-2.6Z"/></svg>