<svg id="Layer_1" data-name="Layer 1" xmlns="http://www.w3.org/2000/svg" viewBox="0 0 800.07 458.33"><defs><style>.cls-1{fill:#fff;}.cls-2{fill:#986b4f;}.cls-3{fill:#3c984b;}</style></defs><path class="cls-1" d="M756.18,261.78a34.84,34.84,0,0,0-34.69-8.31A34.88,34.88,0,0,0,690,259a34.27,34.27,0,0,0-21.09-7.1,34.65,34.65,0,0,0-10.47,1.61,34.9,34.9,0,0,0-20.86,0l-.46-.16-1.26-.36a34.89,34.89,0,0,0-8.73-1.11,34.73,34.73,0,0,0-26.65,12.5,34.75,34.75,0,0,0-26.65-12.5A34.81,34.81,0,0,0,565,253c-.41.1-.82.22-1.22.34a34.94,34.94,0,0,0-10.26,5.15l-.25-.2a34.55,34.55,0,0,0-40.41.15,34.65,34.65,0,0,0-42.11,1.09A34.39,34.39,0,0,0,449,251.82a34.75,34.75,0,0,0-8.85,1.14c-1.07-.27-2.14-.49-3.23-.66,1.4-1.44,2.68-2.85,3.84-4.2a28.34,28.34,0,0,0,34.11-23L502.21,62.65a28.36,28.36,0,0,0-27.95-33h-56l-.17-.81A28.35,28.35,0,0,0,390.35,6.08h0a28.34,28.34,0,0,0-27.77,22.68l-.18.84h-57.2a28.36,28.36,0,0,0-28,32.78c.07.4,6.51,41.15,13,81.37,3.8,23.66,6.88,42.52,9.14,56.06,1.35,8.11,2.42,14.41,3.19,18.73.45,2.49.81,4.45,1.08,5.78,4.81,23.89,25.86,24.58,28.25,24.58q1.11,0,2.22-.09a28.2,28.2,0,0,0,3.54-.5c1.46,1.5,3,3,4.69,4.54a34.48,34.48,0,0,0-5.39-.43,34,34,0,0,0-15.82,3.85l-.69-.3a50,50,0,0,0-20-4.08H277.14a34.37,34.37,0,0,0-23.59,9.27,34.81,34.81,0,0,0-40-5.22,50,50,0,0,0-19.9-4.05H170.45a35.11,35.11,0,0,0-10.35,1.56,35,35,0,0,0-10.53-1.63,34.28,34.28,0,0,0-21.76,7.69,34.7,34.7,0,0,0-38.48-3.41,62.46,62.46,0,0,0-6.93-2.29,59,59,0,0,0-15-1.92,57.6,57.6,0,0,0-19.83,3.45,55.43,55.43,0,0,0-17,9.79A51.2,51.2,0,0,0,18,281a47.14,47.14,0,0,0-5.15,21.56,44.81,44.81,0,0,0,3.55,17.79c.45,1.06.94,2.09,1.47,3.11q-.7,1.3-1.29,2.7a34.4,34.4,0,0,0-.18,26.65,49.71,49.71,0,0,0,8.92,14.29,51.89,51.89,0,0,0,5.26,5.12,30.71,30.71,0,0,0-.11,33.49l6,9.18v3.61a30.79,30.79,0,0,0,50.79,23.41c.38.25.74.51,1.13.75a44.54,44.54,0,0,0,10.69,4.82,43.52,43.52,0,0,0,24.84,0,44.46,44.46,0,0,0,10.73-4.83c.62-.39,1.23-.81,1.83-1.23.61.43,1.23.85,1.86,1.24A44.54,44.54,0,0,0,149,447.49a43.62,43.62,0,0,0,28.51-1.26c.82-.32,1.63-.68,2.43-1.06a31.75,31.75,0,0,0,4,1.95,30.32,30.32,0,0,0,6.91,1.86,31.64,31.64,0,0,0,4.46.32A30.72,30.72,0,0,0,206,447.39a30.67,30.67,0,0,0,10.68,1.91,30.86,30.86,0,0,0,25.93-14.16,40.82,40.82,0,0,0,33.76,17.11,47.2,47.2,0,0,0,10.42-1.15,28.65,28.65,0,0,0,5.25.49h6.27a28.35,28.35,0,0,0,26-17l.09-.23a28.34,28.34,0,0,0,26.07,17.26H356a28.3,28.3,0,0,0,8.4-1.28,28.37,28.37,0,0,0,8.41,1.28h5.49a28.27,28.27,0,0,0,15.81-4.84,28.23,28.23,0,0,0,15.84,4.84h22.85a28,28,0,0,0,10.94-2.2,28.13,28.13,0,0,0,10.95,2.2h22.6a28.15,28.15,0,0,0,10.46-2,28.22,28.22,0,0,0,10.46,2h22.61a28.19,28.19,0,0,0,10.46-2,28.19,28.19,0,0,0,10.46,2h4.94a28.18,28.18,0,0,0,10.14-1.87,28.3,28.3,0,0,0,10.12,1.87h5.3a28.22,28.22,0,0,0,12.12-2.72,28.26,28.26,0,0,0,12.12,2.72h22.85a28.31,28.31,0,0,0,12.1-2.71,51.82,51.82,0,0,0,18.1,3.31,45.84,45.84,0,0,0,22-5.41,50.55,50.55,0,0,0,22.8,5.41c24.27,0,42.57-17.22,42.57-40A40,40,0,0,0,733.07,395l.66-1.95a28.46,28.46,0,0,0,1.46-7.7,34.6,34.6,0,0,0,31.38-34.46V286.5A34.33,34.33,0,0,0,756.18,261.78Z"/><path class="cls-2" d="M390.94,125.5l.6,2.14a28.5,28.5,0,0,0,5.66,10.44c1.77,2.14,3.79,4,5.61,6.08a16.17,16.17,0,0,1,3.63,6.35,9.85,9.85,0,0,1-.9,7,20,20,0,0,1-3.65,5c0-1.11.14-2.09.07-3.09a6.08,6.08,0,0,0-1.39-3.49,29.14,29.14,0,0,0-4-3.81c-1.25-1.09-2.5-2.19-3.8-3.22a3.36,3.36,0,0,1-1.18-2.13,58.66,58.66,0,0,1-.76-9.64c-.07-3.73-.06-7.47-.08-11.21,0-.15,0-.29,0-.43Z"/><path class="cls-2" d="M365.61,166.64c2.43,4.3,6.21,6.45,10.07,8.49,2.44,1.3,5,2.4,7.12,4.29a6.11,6.11,0,0,1,2.19,6.24,13.14,13.14,0,0,1-.73,2.36c-.17.38-.32.47-.69.33-1.44-.52-2.88-1-4.33-1.5a5.93,5.93,0,0,0-2-.31c-2,0-3,1.46-2.51,3.5-1.91-.82-5.86-6.41-7.32-10.29A29.44,29.44,0,0,1,365.61,166.64Z"/><path class="cls-2" d="M415.33,166.76c1.77,6.34-3.35,19.52-9.07,23.27a3,3,0,0,0-.38-2.57,2.36,2.36,0,0,0-1.43-.87,4.36,4.36,0,0,0-2.35.14c-1.54.5-3.08,1-4.61,1.57-.48.17-.66,0-.83-.44a12.06,12.06,0,0,1-.82-3,6.3,6.3,0,0,1,2.34-5.43,29.33,29.33,0,0,1,5.87-3.65,41,41,0,0,0,7.75-4.82,14.88,14.88,0,0,0,3.22-3.83C415.09,167,415.11,166.81,415.33,166.76Z"/><path class="cls-2" d="M396.34,178.68a67.42,67.42,0,0,1,2.57-9.08,19.52,19.52,0,0,1,4-5.82c2.43-2.63,4.63-5.46,5.19-9.31a10.5,10.5,0,0,0-.13-3.58.69.69,0,0,1,0-.61,4.91,4.91,0,0,1,1.32,1.29,22.63,22.63,0,0,1,4.47,7,8.91,8.91,0,0,1-1.8,9.62,22.65,22.65,0,0,1-3.88,3.31c-2.67,1.92-5.68,3.13-8.44,4.85A25.4,25.4,0,0,0,396.34,178.68Z"/><path class="cls-2" d="M373.05,150.32c-.09.77-.22,1.53-.26,2.3a12.23,12.23,0,0,0,2.08,7.12,23.48,23.48,0,0,0,3.47,4.32,17.56,17.56,0,0,1,4.37,7.24c.78,2.44,1.32,4.95,2,7.44a29.19,29.19,0,0,0-5.86-3.82c-1.76-.94-3.54-1.83-5.21-2.93a20.53,20.53,0,0,1-4.9-4.22,8.78,8.78,0,0,1-1.6-8.88C368.31,155.43,370.56,152.81,373.05,150.32Z"/><path class="cls-2" d="M394.93,168.43a21.52,21.52,0,0,1-.52-3.89c-.12-1.39-.18-2.8-.41-4.19a3.52,3.52,0,0,0-7,0c-.39,2.27-.37,4.6-.69,6.88-.05.34-.12.68-.18,1-.11,0-.18,0-.2,0a18.75,18.75,0,0,1-3.25-6.52,6.32,6.32,0,0,1,.85-4.82,18.46,18.46,0,0,1,2.93-3.53c1.17-1.19,2.35-2.37,3.52-3.57.31-.32.57-.5.94-.09,1.74,1.94,3.72,3.6,5.4,5.6a10.21,10.21,0,0,1,1.26,1.8,6.41,6.41,0,0,1,.68,4.85A22.75,22.75,0,0,1,394.93,168.43Z"/><path class="cls-2" d="M390.24,126.18c0-.15.06-.34-.11-.45-.21.09-.19.29-.23.45a29.06,29.06,0,0,1-2.54,6.73,34.67,34.67,0,0,1-3.73,5.44c-.65.71-1.31,1.42-2,2.14a56.09,56.09,0,0,0-5.17,5.91,10.44,10.44,0,0,0-2,8.25,13.9,13.9,0,0,0,3,6,9.6,9.6,0,0,0,1.67,1.84,1.37,1.37,0,0,0,0-.32,8,8,0,0,1,3-8c1.82-1.52,3.59-3.11,5.38-4.67,0-.17.11-.22.25-.21l0,0a3.52,3.52,0,0,0,1.55-2.21,45.34,45.34,0,0,0,.67-6.47C390.33,135.76,390.23,131,390.24,126.18Z"/><path class="cls-2" d="M416.64,164v0h0Z"/><path class="cls-2" d="M371.36,148.64l2.46-2.45q.33-.57.72-1.14a39.21,39.21,0,0,1,4-4.73c.45-.47.92-1,1.36-1.44l1.91-2.08a33.73,33.73,0,0,0,3.43-5,26.84,26.84,0,0,0,2.32-6.13c.23-.6.6-1.48.81-2a1.22,1.22,0,0,1,.53-.61,3.84,3.84,0,0,1,3.14-.34,1.18,1.18,0,0,1,.8.79c.28,1,.87,3.09,1,3.46a26,26,0,0,0,5.21,9.58c.93,1.13,1.94,2.18,3,3.29.84.88,1.71,1.78,2.55,2.74a20.21,20.21,0,0,1,3.28,4.93l1.22.65a5.89,5.89,0,0,1,1.78,1.58l.21.25a29.94,29.94,0,0,1,3.77,5.19L390.33,34.43l-25,122.49A26.73,26.73,0,0,1,371.36,148.64Z"/><path class="cls-2" d="M387.56,149.46c0-.17.11-.22.25-.21Z"/><path class="cls-3" d="M305.18,58h60l-7.27,125.72a7.82,7.82,0,0,0,1.4,4.94,36.49,36.49,0,0,0,31.36,15.5c16.57-.38,30.64-9,30.82-17.42S414.29,58,414.29,58h60L446.94,220.43s-11.56-8.62-19.81,0-15.52,23.52-37.41,24c-18,.41-33.05-15.92-40-25.7-4.64-6.57-16.85,1.71-17.94,1.8C330.88,220.62,305.18,58,305.18,58Z"/><path class="cls-3" d="M67.44,357.12A29.78,29.78,0,0,1,52.28,353a24.22,24.22,0,0,1-5.76-4.72,21.5,21.5,0,0,1-3.85-6.17,6.05,6.05,0,0,1,0-4.83,6.13,6.13,0,0,1,3.47-3.36,6.25,6.25,0,0,1,2.33-.47,6.32,6.32,0,0,1,3.47,1,6.23,6.23,0,0,1,2.4,2.9,9.62,9.62,0,0,0,1.88,2.84,12.48,12.48,0,0,0,3,2.27A16.22,16.22,0,0,0,63.05,344a18.26,18.26,0,0,0,4.39.53,17.11,17.11,0,0,0,5.31-.81,15.94,15.94,0,0,0,4.39-2.18,10.41,10.41,0,0,0,2.9-3.11,7,7,0,0,0,1-3.64,5.71,5.71,0,0,0-.54-2.41,6.64,6.64,0,0,0-2.08-2.31,23.5,23.5,0,0,0-4.69-2.56,70.36,70.36,0,0,0-8-2.76c-1.41-.44-3-.95-4.74-1.52a54.66,54.66,0,0,1-5.33-2.08,40.26,40.26,0,0,1-5.26-2.87,23,23,0,0,1-4.63-3.91,18.17,18.17,0,0,1-3.29-5.16,16.68,16.68,0,0,1-1.26-6.63,19,19,0,0,1,2.07-8.72,22.84,22.84,0,0,1,5.66-7.1A27.15,27.15,0,0,1,57.31,282a29.53,29.53,0,0,1,10.13-1.73,30.58,30.58,0,0,1,7.74,1A29.9,29.9,0,0,1,82.12,284a24.65,24.65,0,0,1,5.68,4.38,21.55,21.55,0,0,1,4,5.82A6.19,6.19,0,0,1,92,299a6.32,6.32,0,0,1-3.19,3.58,6.49,6.49,0,0,1-2.66.62,6.41,6.41,0,0,1-5.78-3.69,9.73,9.73,0,0,0-2-2.74,12.09,12.09,0,0,0-2.93-2.14,16.41,16.41,0,0,0-3.77-1.4,18.26,18.26,0,0,0-4.26-.5,17.06,17.06,0,0,0-5.31.81,15.38,15.38,0,0,0-4.38,2.2,10.81,10.81,0,0,0-2.91,3.15,6.94,6.94,0,0,0-1,3.64,4.71,4.71,0,0,0,.74,2.57,8.94,8.94,0,0,0,2.54,2.46,26.63,26.63,0,0,0,4.83,2.51c2,.84,4.5,1.71,7.36,2.57,1.27.35,2.77.8,4.42,1.32a54.14,54.14,0,0,1,5.23,2,40.14,40.14,0,0,1,5.29,2.8,22.18,22.18,0,0,1,4.74,4,19.23,19.23,0,0,1,3.4,5.26,17,17,0,0,1,1.29,6.79,19,19,0,0,1-2.08,8.72,22.85,22.85,0,0,1-5.66,7.11,27.3,27.3,0,0,1-8.31,4.77A29.52,29.52,0,0,1,67.44,357.12Z"/><path class="cls-3" d="M69,313.57c1.27.36,2.74.79,4.41,1.32a54.86,54.86,0,0,1,5.14,1.94,39.54,39.54,0,0,1,5.17,2.74,21.38,21.38,0,0,1,4.54,3.78,18.16,18.16,0,0,1,3.23,5,16,16,0,0,1,1.22,6.42,18,18,0,0,1-2,8.3,21.78,21.78,0,0,1-5.43,6.82,26.34,26.34,0,0,1-8,4.61,29.2,29.2,0,0,1-24.54-2.31,23,23,0,0,1-5.53-4.54,20.59,20.59,0,0,1-3.69-5.9,5.15,5.15,0,0,1,0-4.11,5.22,5.22,0,0,1,3-2.87,5.31,5.31,0,0,1,4.94.5,5.2,5.2,0,0,1,2,2.47,10.23,10.23,0,0,0,2.07,3.12,13,13,0,0,0,3.19,2.44,16.8,16.8,0,0,0,4.09,1.58,19.08,19.08,0,0,0,4.61.56,17.79,17.79,0,0,0,5.6-.86,16.63,16.63,0,0,0,4.64-2.3,11.38,11.38,0,0,0,3.16-3.39A8,8,0,0,0,82,334.78a6.56,6.56,0,0,0-.62-2.8A7.53,7.53,0,0,0,79,329.31a24.65,24.65,0,0,0-4.88-2.66,69,69,0,0,0-8.13-2.8q-2.11-.66-4.71-1.52a54.32,54.32,0,0,1-5.24-2,38.93,38.93,0,0,1-5.13-2.8,22.07,22.07,0,0,1-4.45-3.75,17.58,17.58,0,0,1-3.13-4.91,15.74,15.74,0,0,1-1.18-6.26,18.11,18.11,0,0,1,2-8.29,21.84,21.84,0,0,1,5.44-6.82,26.19,26.19,0,0,1,8.07-4.61,28.4,28.4,0,0,1,9.81-1.68,29.67,29.67,0,0,1,7.51.95,28.8,28.8,0,0,1,6.72,2.7A23.7,23.7,0,0,1,87.13,289,20.55,20.55,0,0,1,91,294.6a5.27,5.27,0,0,1,.17,4.12,5.29,5.29,0,0,1-7.84,2.77,5.45,5.45,0,0,1-2.08-2.34,10.72,10.72,0,0,0-2.14-3,12.78,12.78,0,0,0-3.16-2.3,17,17,0,0,0-4-1.48,18.5,18.5,0,0,0-4.48-.53,18,18,0,0,0-5.6.85A16.31,16.31,0,0,0,57.2,295,11.5,11.5,0,0,0,54,298.46a7.92,7.92,0,0,0-1.16,4.11,5.71,5.71,0,0,0,.89,3.07,9.87,9.87,0,0,0,2.8,2.73,26.72,26.72,0,0,0,5,2.6A77,77,0,0,0,69,313.57Z"/><path class="cls-3" d="M149.57,357.12a6.21,6.21,0,0,1-6.27-6.27v-26.4H112.37v26.4a6,6,0,0,1-1.86,4.45,6.18,6.18,0,0,1-4.48,1.82,6.21,6.21,0,0,1-6.26-6.27V286.5a6.19,6.19,0,0,1,1.81-4.47,6,6,0,0,1,4.45-1.86,6.33,6.33,0,0,1,6.34,6.33v26.4H143.3V286.5a6.18,6.18,0,0,1,1.82-4.47,6,6,0,0,1,4.45-1.86,6.32,6.32,0,0,1,6.33,6.33v64.35A6,6,0,0,1,154,355.3,6.16,6.16,0,0,1,149.57,357.12Z"/><path class="cls-3" d="M149.57,281.1a5.39,5.39,0,0,1,5.4,5.4v64.35a5.1,5.1,0,0,1-1.58,3.79,5.27,5.27,0,0,1-3.82,1.55,5.29,5.29,0,0,1-5.34-5.34V323.52h-32.8v27.33a5.07,5.07,0,0,1-1.58,3.79,5.25,5.25,0,0,1-3.82,1.55,5.29,5.29,0,0,1-5.33-5.34V286.5a5.24,5.24,0,0,1,1.55-3.82A5.1,5.1,0,0,1,106,281.1a5.39,5.39,0,0,1,5.4,5.4v27.34h32.8V286.5a5.28,5.28,0,0,1,1.55-3.82A5.12,5.12,0,0,1,149.57,281.1Z"/><path class="cls-3" d="M209.77,357.12a6.21,6.21,0,0,1-6.27-6.27V334.78a9.38,9.38,0,0,0-.78-3.81,10.14,10.14,0,0,0-2.11-3.1,10.27,10.27,0,0,0-3.11-2.12,9.45,9.45,0,0,0-3.8-.77H176.78v25.87a6,6,0,0,1-1.86,4.45,6.16,6.16,0,0,1-4.47,1.82,6.21,6.21,0,0,1-6.27-6.27V286.5a6.21,6.21,0,0,1,6.27-6.26H193.7a21.92,21.92,0,0,1,8.73,1.75,22.59,22.59,0,0,1,11.91,11.92,22.19,22.19,0,0,1-.31,18,22.77,22.77,0,0,1-4.8,6.71,23.17,23.17,0,0,1,4.81,6.75,21.84,21.84,0,0,1,2.06,9.39v16.07a6,6,0,0,1-1.86,4.45A6.16,6.16,0,0,1,209.77,357.12ZM193.7,312.38a9.29,9.29,0,0,0,3.8-.78,10.06,10.06,0,0,0,3.11-2.11,10.18,10.18,0,0,0,2.11-3.11,9.67,9.67,0,0,0,0-7.61,10.18,10.18,0,0,0-2.11-3.11,10.06,10.06,0,0,0-3.11-2.11,9.29,9.29,0,0,0-3.8-.78H176.78v19.61Z"/><path class="cls-3" d="M215.17,302.57a20.51,20.51,0,0,1-2,9,21.73,21.73,0,0,1-5.33,7.11,21.79,21.79,0,0,1,5.33,7.15,20.77,20.77,0,0,1,2,9v16.07a5.1,5.1,0,0,1-1.58,3.79,5.28,5.28,0,0,1-3.82,1.55,5.29,5.29,0,0,1-5.34-5.34V334.78a10.25,10.25,0,0,0-.85-4.18,10.84,10.84,0,0,0-2.31-3.39,11,11,0,0,0-3.39-2.31,10.28,10.28,0,0,0-4.18-.85H175.85v26.8a5.1,5.1,0,0,1-1.58,3.79,5.28,5.28,0,0,1-3.82,1.55,5.29,5.29,0,0,1-5.34-5.34V286.5a5.29,5.29,0,0,1,5.34-5.33H193.7a20.85,20.85,0,0,1,8.36,1.68,21.68,21.68,0,0,1,11.43,11.43A20.65,20.65,0,0,1,215.17,302.57ZM193.7,313.31a10.12,10.12,0,0,0,4.18-.86,11,11,0,0,0,5.7-5.69,10.73,10.73,0,0,0,0-8.37,11,11,0,0,0-5.7-5.7,10.28,10.28,0,0,0-4.18-.85H175.85v21.47Z"/><path class="cls-3" d="M229.92,357.12a6.21,6.21,0,0,1-6.27-6.27V286.5a6.23,6.23,0,0,1,6.27-6.26,6.19,6.19,0,0,1,4.47,1.81,6,6,0,0,1,1.86,4.45v64.35a6,6,0,0,1-1.86,4.45A6.14,6.14,0,0,1,229.92,357.12Z"/><path class="cls-3" d="M229.92,281.17a5.27,5.27,0,0,1,3.82,1.55,5.06,5.06,0,0,1,1.58,3.78v64.35a5.07,5.07,0,0,1-1.58,3.79,5.27,5.27,0,0,1-3.82,1.55,5.28,5.28,0,0,1-5.33-5.34V286.5a5.28,5.28,0,0,1,5.33-5.33Z"/><path class="cls-3" d="M353.48,357.12a56.56,56.56,0,0,1-16-2.31,60.85,60.85,0,0,1-14.68-6.56A62.06,62.06,0,0,1,310.19,338a61.11,61.11,0,0,1-9.37-13H283.48v25.87a6,6,0,0,1-1.86,4.45,6.18,6.18,0,0,1-4.48,1.82,6.21,6.21,0,0,1-6.26-6.27V286.5a6.21,6.21,0,0,1,6.26-6.26h23.25a22,22,0,0,1,8.74,1.75A22.68,22.68,0,0,1,321,293.91a22.28,22.28,0,0,1-1.14,19.67A23.08,23.08,0,0,1,313,321a48.53,48.53,0,0,0,7.23,9.43A48,48,0,0,0,330,338.1a47.21,47.21,0,0,0,11.23,4.81,45.57,45.57,0,0,0,12.3,1.67,44.9,44.9,0,0,0,9.13-.93,48.62,48.62,0,0,0,8.82-2.75,5.83,5.83,0,0,1,2.47-.53,6.37,6.37,0,0,1,3.43,1,6.14,6.14,0,0,1,2.36,2.79,6.21,6.21,0,0,1,0,4.84,6.3,6.3,0,0,1-3.34,3.43,57.74,57.74,0,0,1-22.91,4.69Zm-53.09-44.74a9.31,9.31,0,0,0,3.81-.78,10,10,0,0,0,5.22-5.22,9.31,9.31,0,0,0,.78-3.81,9.15,9.15,0,0,0-.78-3.74,10.18,10.18,0,0,0-2.11-3.11,10.36,10.36,0,0,0-3.11-2.11,9.47,9.47,0,0,0-3.81-.77H283.48v19.54Zm51.84,21.36a20.73,20.73,0,0,1-8.21-1.66,21.09,21.09,0,0,1-11.22-11.19,20.44,20.44,0,0,1-1.66-8.17V286.5a5.62,5.62,0,0,1,1.65-4,5.76,5.76,0,0,1,9.83,4v26.22a9.38,9.38,0,0,0,2.82,6.74,10,10,0,0,0,3.07,2.05,9.26,9.26,0,0,0,3.72.75,9.51,9.51,0,0,0,3.75-.75,9.86,9.86,0,0,0,3.1-2.05,9.38,9.38,0,0,0,2.82-6.74V286.5a5.58,5.58,0,0,1,1.65-4,5.49,5.49,0,0,1,4.09-1.7,5.77,5.77,0,0,1,5.74,5.74v26.22a20.44,20.44,0,0,1-1.66,8.17,20.74,20.74,0,0,1-4.55,6.68,21.38,21.38,0,0,1-6.74,4.51A20.65,20.65,0,0,1,352.23,333.74Z"/><path class="cls-3" d="M378.84,344.53a5.26,5.26,0,0,1,0,4.12,5.38,5.38,0,0,1-2.87,2.93,57.14,57.14,0,0,1-22.52,4.61,55.15,55.15,0,0,1-15.78-2.28,59.49,59.49,0,0,1-14.45-6.45,60.9,60.9,0,0,1-12.38-10.11,59.85,59.85,0,0,1-9.49-13.3H282.54v26.8a5.07,5.07,0,0,1-1.58,3.79,5.25,5.25,0,0,1-3.82,1.55,5.29,5.29,0,0,1-5.33-5.34V286.5a5.29,5.29,0,0,1,5.33-5.33h23.25a20.86,20.86,0,0,1,8.37,1.68,21.77,21.77,0,0,1,11.43,11.43,20.81,20.81,0,0,1,1.67,8.29,20.55,20.55,0,0,1-2.76,10.54,22.2,22.2,0,0,1-7.31,7.64,49.29,49.29,0,0,0,17.68,18.15,47.32,47.32,0,0,0,11.46,4.9,45.86,45.86,0,0,0,12.55,1.72,45.28,45.28,0,0,0,9.32-1,48.91,48.91,0,0,0,9-2.8,5,5,0,0,1,2.11-.46,5.39,5.39,0,0,1,2.93.86A5.18,5.18,0,0,1,378.84,344.53Zm-96.3-31.22h17.85a10.14,10.14,0,0,0,4.19-.86,10.89,10.89,0,0,0,5.69-5.69,10.3,10.3,0,0,0,.86-4.19,10.09,10.09,0,0,0-.86-4.11,11,11,0,0,0-5.69-5.7,10.3,10.3,0,0,0-4.19-.86H282.54Zm69.69,19.5a19.59,19.59,0,0,1-7.84-1.59,20.2,20.2,0,0,1-6.42-4.31,20.48,20.48,0,0,1-4.32-6.39,19.53,19.53,0,0,1-1.58-7.8V286.5a4.67,4.67,0,0,1,1.39-3.39,4.83,4.83,0,0,1,8.23,3.39v26.22a10.15,10.15,0,0,0,.82,4.08,10.53,10.53,0,0,0,2.27,3.33,11.16,11.16,0,0,0,3.36,2.24,10.23,10.23,0,0,0,4.09.82,10.37,10.37,0,0,0,4.11-.82,11,11,0,0,0,3.4-2.24A10.53,10.53,0,0,0,362,316.8a10.15,10.15,0,0,0,.82-4.08V286.5a4.71,4.71,0,0,1,1.38-3.39,4.83,4.83,0,0,1,8.24,3.39v26.22a19.53,19.53,0,0,1-1.58,7.8,20.23,20.23,0,0,1-4.35,6.39,20.67,20.67,0,0,1-6.45,4.31A19.62,19.62,0,0,1,352.23,332.81Z"/><path class="cls-3" d="M392.38,357.18a6,6,0,0,1-4.46-1.86,6.19,6.19,0,0,1-1.81-4.47V286.5a6.21,6.21,0,0,1,6.27-6.26,6.21,6.21,0,0,1,4.47,1.81,6,6,0,0,1,1.86,4.45v24l28.44-28.44a6.13,6.13,0,0,1,4.48-1.85,6.35,6.35,0,0,1,2.39.46,5.57,5.57,0,0,1,2.05,1.42,6.24,6.24,0,0,1,0,8.86l-27.53,27.53,27.73,27.73A6.31,6.31,0,0,1,431.76,357a6.2,6.2,0,0,1-2.32-.47,6,6,0,0,1-2.09-1.39l-28.64-28.64v24.36a6.33,6.33,0,0,1-6.33,6.33Z"/><path class="cls-3" d="M435.58,346.9a5.37,5.37,0,0,1-3.82,9.15,5.28,5.28,0,0,1-2-.39,5.11,5.11,0,0,1-1.78-1.19l-30.23-30.23v26.61a5.39,5.39,0,0,1-5.4,5.4,5.07,5.07,0,0,1-3.79-1.58,5.25,5.25,0,0,1-1.55-3.82V286.5a5.29,5.29,0,0,1,5.34-5.33,5.28,5.28,0,0,1,3.82,1.55,5.1,5.1,0,0,1,1.58,3.78v26.28l30-30a5.22,5.22,0,0,1,3.82-1.58,5.52,5.52,0,0,1,2,.39,4.63,4.63,0,0,1,1.71,1.19,5.32,5.32,0,0,1,0,7.57l-28.19,28.19Z"/><path class="cls-3" d="M492.55,357.12a6.21,6.21,0,0,1-6.26-6.27v-26.4H455.35v26.4a6,6,0,0,1-1.86,4.45,6.16,6.16,0,0,1-4.47,1.82,6.21,6.21,0,0,1-6.27-6.27V286.5a6.19,6.19,0,0,1,1.81-4.47,6,6,0,0,1,4.46-1.86,6.32,6.32,0,0,1,6.33,6.33v26.4h30.94V286.5A6.21,6.21,0,0,1,488.1,282a6,6,0,0,1,4.45-1.86,6.33,6.33,0,0,1,6.34,6.33v64.35A6,6,0,0,1,497,355.3,6.14,6.14,0,0,1,492.55,357.12Z"/><path class="cls-3" d="M492.55,281.1a5.39,5.39,0,0,1,5.4,5.4v64.35a5.07,5.07,0,0,1-1.58,3.79,5.27,5.27,0,0,1-3.82,1.55,5.28,5.28,0,0,1-5.33-5.34V323.52h-32.8v27.33a5.1,5.1,0,0,1-1.58,3.79,5.28,5.28,0,0,1-3.82,1.55,5.29,5.29,0,0,1-5.34-5.34V286.5a5.28,5.28,0,0,1,1.55-3.82A5.1,5.1,0,0,1,449,281.1a5.39,5.39,0,0,1,5.4,5.4v27.34h32.8V286.5a5.28,5.28,0,0,1,1.54-3.82A5.13,5.13,0,0,1,492.55,281.1Z"/><path class="cls-3" d="M556.57,357.12A6.28,6.28,0,0,1,553,356a6,6,0,0,1-2.33-3l-5.57-15.32H521.33L515.76,353a6,6,0,0,1-2.34,3,6.26,6.26,0,0,1-3.55,1.08,7.31,7.31,0,0,1-1.05-.08,4.12,4.12,0,0,1-1.16-.33,6.18,6.18,0,0,1-2.1-1.29,6,6,0,0,1-1.44-1.94,6.39,6.39,0,0,1-.58-2.31,6,6,0,0,1,.39-2.49l23.38-64.34a6.4,6.4,0,0,1,2.27-3,5.93,5.93,0,0,1,3.61-1.17,6.16,6.16,0,0,1,3.64,1.16,6.43,6.43,0,0,1,2.3,3l23.39,64.36a6.08,6.08,0,0,1,.38,2.48,6.19,6.19,0,0,1-.58,2.31,6,6,0,0,1-1.43,1.94,6.55,6.55,0,0,1-2.12,1.3A5.31,5.31,0,0,1,556.57,357.12ZM541,326.21l-7.76-21.3-7.7,21.3Z"/><path class="cls-3" d="M561.64,349a4.84,4.84,0,0,1,.33,2.11,5.44,5.44,0,0,1-.49,2,5.13,5.13,0,0,1-1.22,1.65,5.76,5.76,0,0,1-1.85,1.12,4.42,4.42,0,0,1-1.84.33,5.31,5.31,0,0,1-3-.93,5,5,0,0,1-2-2.56l-5.8-15.94H520.68l-5.8,15.94a5,5,0,0,1-2,2.56,5.31,5.31,0,0,1-3,.93,5.79,5.79,0,0,1-.92-.07,3.53,3.53,0,0,1-.92-.26,5.72,5.72,0,0,1-1.84-1.12,5,5,0,0,1-1.22-1.65,5.45,5.45,0,0,1-.5-2,5.16,5.16,0,0,1,.33-2.11l23.38-64.35a5.59,5.59,0,0,1,2-2.57,5,5,0,0,1,3.06-1,5.18,5.18,0,0,1,3.09,1,5.39,5.39,0,0,1,2,2.57Zm-19.36-21.87-9.09-25-9,25Z"/><path class="cls-3" d="M627.11,357.12a6.09,6.09,0,0,1-4.41-1.82,6,6,0,0,1-1.86-4.45V310l-14.92,25.78a6.29,6.29,0,0,1-2.28,2.3,6,6,0,0,1-3.14.86,6.3,6.3,0,0,1-3.17-.85,6.2,6.2,0,0,1-2.31-2.32L580.16,310v40.84a6,6,0,0,1-1.86,4.45,6.16,6.16,0,0,1-4.47,1.82,6.21,6.21,0,0,1-6.27-6.27V286.5a6,6,0,0,1,1.32-3.83,6.62,6.62,0,0,1,3.29-2.26,6.78,6.78,0,0,1,1.68-.23,6.37,6.37,0,0,1,2.41.49,6.23,6.23,0,0,1,3,2.66L600.5,320l21.19-36.67a6.18,6.18,0,0,1,3.06-2.67,6.32,6.32,0,0,1,2.4-.49,6.2,6.2,0,0,1,5,2.49,6,6,0,0,1,1.32,3.83v64.35a6,6,0,0,1-1.86,4.45A6.16,6.16,0,0,1,627.11,357.12Z"/><path class="cls-3" d="M628.56,281.3a5.68,5.68,0,0,1,2.83,1.94,5.12,5.12,0,0,1,1.12,3.26v64.35a5.1,5.1,0,0,1-1.58,3.79,5.27,5.27,0,0,1-3.82,1.55,5.18,5.18,0,0,1-3.75-1.55,5.07,5.07,0,0,1-1.59-3.79V306.53l-16.66,28.78a5.39,5.39,0,0,1-1.94,2,5.06,5.06,0,0,1-2.67.73,5.21,5.21,0,0,1-2.7-.73,5.42,5.42,0,0,1-2-2l-16.59-28.78v44.32a5.1,5.1,0,0,1-1.58,3.79,5.28,5.28,0,0,1-3.82,1.55,5.29,5.29,0,0,1-5.34-5.34V286.5a5.12,5.12,0,0,1,1.12-3.26,5.68,5.68,0,0,1,2.83-1.94,5.33,5.33,0,0,1,3.46.23,5.24,5.24,0,0,1,2.6,2.27l22,38.07,22-38.07a5.24,5.24,0,0,1,2.6-2.27A5.33,5.33,0,0,1,628.56,281.3Z"/><path class="cls-3" d="M648,357.12a6.21,6.21,0,0,1-6.27-6.27V286.5a6.21,6.21,0,0,1,6.27-6.26,6.21,6.21,0,0,1,4.47,1.81,6,6,0,0,1,1.86,4.45v64.35a6,6,0,0,1-1.86,4.45A6.16,6.16,0,0,1,648,357.12Z"/><path class="cls-3" d="M648,281.17a5.28,5.28,0,0,1,3.82,1.55,5.1,5.1,0,0,1,1.58,3.78v64.35a5.1,5.1,0,0,1-1.58,3.79,5.28,5.28,0,0,1-3.82,1.55,5.29,5.29,0,0,1-5.34-5.34V286.5a5.29,5.29,0,0,1,5.34-5.33Z"/><path class="cls-3" d="M711.08,357.12a6.48,6.48,0,0,1-3-.73,6,6,0,0,1-2.3-2.07L675.2,307.61v43.24a6,6,0,0,1-1.86,4.45,6.18,6.18,0,0,1-4.48,1.82,6.21,6.21,0,0,1-6.26-6.27V286.5a6,6,0,0,1,1.86-4.49,6.25,6.25,0,0,1,4.47-1.77,6.07,6.07,0,0,1,5.24,2.77l30.58,46.73V286.5a6,6,0,0,1,1.86-4.45,6.21,6.21,0,0,1,4.47-1.81,6.21,6.21,0,0,1,6.27,6.26v64.35a6.07,6.07,0,0,1-1.83,4.49A6.14,6.14,0,0,1,711.08,357.12Z"/><path class="cls-3" d="M711.08,281.17a5.29,5.29,0,0,1,5.34,5.33v64.35a5.12,5.12,0,0,1-1.55,3.82,5.22,5.22,0,0,1-3.79,1.52,5.42,5.42,0,0,1-2.53-.63,5.05,5.05,0,0,1-1.95-1.74l-32.33-49.34v46.37a5.07,5.07,0,0,1-1.59,3.79,5.25,5.25,0,0,1-3.82,1.55,5.29,5.29,0,0,1-5.33-5.34V286.5a5.09,5.09,0,0,1,1.58-3.82,5.31,5.31,0,0,1,3.82-1.51,5.18,5.18,0,0,1,4.48,2.37l32.27,49.33V286.5a5.1,5.1,0,0,1,1.58-3.78A5.28,5.28,0,0,1,711.08,281.17Z"/><path class="cls-3" d="M731.89,357.12a6.21,6.21,0,0,1-6.26-6.27V286.5a6.21,6.21,0,0,1,6.26-6.26,6.23,6.23,0,0,1,4.48,1.81,6,6,0,0,1,1.86,4.45v64.35a6,6,0,0,1-1.86,4.45A6.18,6.18,0,0,1,731.89,357.12Z"/><path class="cls-3" d="M731.89,281.17a5.25,5.25,0,0,1,3.82,1.55,5.06,5.06,0,0,1,1.58,3.78v64.35a5.07,5.07,0,0,1-1.58,3.79,5.25,5.25,0,0,1-3.82,1.55,5.29,5.29,0,0,1-5.33-5.34V286.5a5.29,5.29,0,0,1,5.33-5.33Z"/><path class="cls-3" d="M358.54,310.2a6.28,6.28,0,0,1-12.56,0c0-3.47,2.81-19.88,6.28-19.88S358.54,306.73,358.54,310.2Z"/><path class="cls-2" d="M79.47,387a2.32,2.32,0,0,1,1,1.53,2.37,2.37,0,0,1-.33,1.84L69.7,406.48v12a2.45,2.45,0,0,1-4.17,1.73,2.32,2.32,0,0,1-.71-1.73v-12l-10.49-16.1a2.42,2.42,0,0,1-.35-1.84A2.25,2.25,0,0,1,55.05,387a2.38,2.38,0,0,1,1.33-.39,2.51,2.51,0,0,1,1.16.28,2.44,2.44,0,0,1,.92.83l8.8,13.51,8.8-13.51a2.44,2.44,0,0,1,.92-.83,2.51,2.51,0,0,1,1.16-.28A2.43,2.43,0,0,1,79.47,387Z"/><path class="cls-2" d="M111.51,386.62a15,15,0,0,1,6.3,1.34,16.11,16.11,0,0,1,5.14,3.67,17.91,17.91,0,0,1,3.47,5.46,18.13,18.13,0,0,1,.7,11.24,17.7,17.7,0,0,1-1.62,4.1,16.94,16.94,0,0,1-2.55,3.48,16.55,16.55,0,0,1-3.29,2.69,15.91,15.91,0,0,1-3.85,1.73,15.22,15.22,0,0,1-8.6,0,15.91,15.91,0,0,1-3.85-1.73,17,17,0,0,1-5.84-6.17,18.07,18.07,0,0,1-2.2-8.66,17.5,17.5,0,0,1,1.28-6.68,17.91,17.91,0,0,1,3.47-5.46,16.11,16.11,0,0,1,5.14-3.67A15,15,0,0,1,111.51,386.62Zm0,29.42a10.25,10.25,0,0,0,4.4-1,11.3,11.3,0,0,0,3.57-2.62,12.49,12.49,0,0,0,2.41-3.9,13,13,0,0,0-2.41-13.45,11.21,11.21,0,0,0-3.57-2.64,10.49,10.49,0,0,0-8.77,0,11.52,11.52,0,0,0-3.59,2.64,13.1,13.1,0,0,0-2.42,13.45,12.52,12.52,0,0,0,2.42,3.9,11.62,11.62,0,0,0,3.59,2.62A10.19,10.19,0,0,0,111.51,416Z"/><path class="cls-2" d="M175,404a2.49,2.49,0,0,1,1,.22,2.61,2.61,0,0,1,.86.65,2.41,2.41,0,0,1,.54,2,17.5,17.5,0,0,1-2,5.65,16.74,16.74,0,0,1-3.57,4.45,16,16,0,0,1-4.78,2.92,14.84,14.84,0,0,1-5.6,1.06,15,15,0,0,1-4.3-.62,16.16,16.16,0,0,1-3.86-1.73,16.78,16.78,0,0,1-3.28-2.69,16.24,16.24,0,0,1-2.55-3.48,18.18,18.18,0,0,1-1.63-4.1,18,18,0,0,1-.57-4.56,17.5,17.5,0,0,1,1.28-6.68,17.91,17.91,0,0,1,3.47-5.46,16.48,16.48,0,0,1,5.14-3.69,15,15,0,0,1,6.3-1.35A15.3,15.3,0,0,1,168,388a16,16,0,0,1,5.39,4.1,2.38,2.38,0,0,1,.59,1.8,2.31,2.31,0,0,1-.86,1.67,2,2,0,0,1-.75.47,2.72,2.72,0,0,1-.84.13,2.31,2.31,0,0,1-1.84-.84,11.43,11.43,0,0,0-3.74-2.87,10.37,10.37,0,0,0-4.46-1,10.15,10.15,0,0,0-4.37,1,11.41,11.41,0,0,0-3.59,2.64,13,13,0,0,0-2.43,3.9,12.92,12.92,0,0,0,2.43,13.45,11.5,11.5,0,0,0,3.59,2.62,10.34,10.34,0,0,0,7.61.45,11.16,11.16,0,0,0,2.89-1.44,11.63,11.63,0,0,0,2.4-2.25,12.07,12.07,0,0,0,1.72-2.91H161.64a2.46,2.46,0,0,1-2.47-2.47,2.33,2.33,0,0,1,.72-1.73,2.38,2.38,0,0,1,1.75-.71Z"/><path class="cls-2" d="M219,417.66a2.37,2.37,0,0,1,.15,1,2.48,2.48,0,0,1-.22.9,2.49,2.49,0,0,1-1.4,1.27,2.09,2.09,0,0,1-.85.15,2.44,2.44,0,0,1-1.38-.42,2.29,2.29,0,0,1-.91-1.18l-2.65-7.29H200.25l-2.65,7.29a2.32,2.32,0,0,1-.9,1.18,2.49,2.49,0,0,1-1.39.42l-.42,0a1.66,1.66,0,0,1-.42-.12,2.5,2.5,0,0,1-.85-.51,2.72,2.72,0,0,1-.56-.76,2.48,2.48,0,0,1-.22-.9,2.37,2.37,0,0,1,.15-1l10.7-29.45a2.52,2.52,0,0,1,.89-1.17,2.32,2.32,0,0,1,1.4-.45,2.4,2.4,0,0,1,1.42.45,2.48,2.48,0,0,1,.9,1.17Zm-8.86-10L206,396.23l-4.13,11.43Z"/><path class="cls-2" d="M292,423.24c-1.15-1.15-2.23-2.29-3.8-4a16.61,16.61,0,0,1-11.87,4.64c-7.9,0-12.48-5.3-12.48-11.39,0-5.55,3.31-9.35,7.95-11.88v-.18a13.93,13.93,0,0,1-3.37-8.5,9.86,9.86,0,0,1,10.31-10c5.06,0,9,3.38,9,8.63,0,4.28-2.47,7.65-8.92,10.85v.18c3.43,4,7.29,8.44,9.88,11.33,1.87-2.83,3.14-6.75,3.92-11.88h4.83c-1.09,6.4-2.84,11.46-5.85,15,2.17,2.29,4.28,4.58,6.69,7.17Zm-6.39-7c-2.41-2.66-6.93-7.6-11.45-12.78-2.17,1.38-5.25,4-5.25,8.26a8,8,0,0,0,8.32,8.19A11.34,11.34,0,0,0,285.65,416.25Zm-12.36-24.78c0,2.89,1.33,5.12,3.08,7.29,4.1-2.35,6.75-4.52,6.75-7.95,0-2.48-1.39-5.25-4.7-5.25S273.29,388.33,273.29,391.47Z"/><path class="cls-2" d="M350.46,423.24l-10.31-40.63h5.55l4.82,20.55c1.21,5.07,2.29,10.13,3,14h.12c.67-4,1.93-8.86,3.32-14.1l5.43-20.5h5.48l4.95,20.62c1.14,4.82,2.23,9.64,2.83,13.92h.12c.84-4.46,2-9,3.25-14l5.37-20.5h5.37l-11.52,40.63h-5.48l-5.13-21.16A120.44,120.44,0,0,1,365,388.82h-.12a128.27,128.27,0,0,1-3.14,13.26L356,423.24Z"/><path class="cls-2" d="M430.94,404.19H415.15v14.65h17.6v4.4H409.9V382.61h22V387h-16.7v12.84h15.79Z"/><path class="cls-2" d="M454.64,382.61h5.24v36.23h17.36v4.4h-22.6Z"/><path class="cls-2" d="M498.16,382.61h5.25v36.23h17.36v4.4H498.16Z"/><path class="cls-2" d="M541.69,423.24V382.61h5.73l13,20.55a116.39,116.39,0,0,1,7.29,13.21l.12-.06c-.48-5.43-.6-10.37-.6-16.7v-17h4.94v40.63h-5.3L554,402.62a127.8,127.8,0,0,1-7.6-13.56l-.18.06c.3,5.12.42,10,.42,16.76v17.36Z"/><path class="cls-2" d="M617.47,404.19H601.68v14.65h17.6v4.4H596.43V382.61h21.94V387H601.68v12.84h15.79Z"/><path class="cls-2" d="M640.44,416.85a18.56,18.56,0,0,0,9.41,2.65c5.36,0,8.5-2.83,8.5-6.93,0-3.8-2.17-6-7.66-8.08C644.06,402.14,640,398.7,640,393c0-6.33,5.24-11,13.14-11a18.51,18.51,0,0,1,9,2l-1.44,4.28a16.26,16.26,0,0,0-7.72-1.92c-5.55,0-7.66,3.31-7.66,6.08,0,3.8,2.48,5.67,8.08,7.84,6.87,2.65,10.37,6,10.37,11.94,0,6.27-4.64,11.69-14.23,11.69-3.92,0-8.2-1.14-10.37-2.59Z"/><path class="cls-2" d="M685.23,416.85a18.59,18.59,0,0,0,9.41,2.65c5.36,0,8.5-2.83,8.5-6.93,0-3.8-2.17-6-7.66-8.08-6.63-2.35-10.73-5.79-10.73-11.51,0-6.33,5.25-11,13.14-11a18.55,18.55,0,0,1,9,2l-1.45,4.28a16.26,16.26,0,0,0-7.72-1.92c-5.54,0-7.65,3.31-7.65,6.08,0,3.8,2.47,5.67,8.08,7.84,6.87,2.65,10.36,6,10.36,11.94,0,6.27-4.64,11.69-14.22,11.69-3.92,0-8.2-1.14-10.37-2.59Z"/></svg>