<svg id="Layer_1" data-name="Layer 1" xmlns="http://www.w3.org/2000/svg" viewBox="0 0 1002.75 266.75"><defs><style>.cls-1{fill:#986b4f;}.cls-2{fill:#3c984b;}</style></defs><path class="cls-1" d="M101.84,108.93c.21.72.41,1.43.61,2.14a28.4,28.4,0,0,0,5.66,10.45c1.76,2.14,3.78,4,5.6,6.08a16.13,16.13,0,0,1,3.63,6.34,9.84,9.84,0,0,1-.89,7,20.32,20.32,0,0,1-3.65,5c0-1.1.13-2.09.07-3.08a6.19,6.19,0,0,0-1.4-3.5,30.4,30.4,0,0,0-4-3.81c-1.25-1.09-2.5-2.19-3.79-3.22a3.28,3.28,0,0,1-1.19-2.13,59.73,59.73,0,0,1-.75-9.63c-.07-3.74-.06-7.48-.09-11.22,0-.14,0-.28,0-.43Z"/><path class="cls-1" d="M76.51,150.07c2.43,4.31,6.21,6.45,10.07,8.5,2.45,1.29,5,2.4,7.12,4.29a6.06,6.06,0,0,1,2.19,6.23,12.38,12.38,0,0,1-.73,2.36c-.16.38-.31.47-.69.34-1.43-.53-2.88-1-4.32-1.51a6,6,0,0,0-2-.31c-2,0-3,1.47-2.51,3.5-1.9-.82-5.86-6.41-7.32-10.29A29.58,29.58,0,0,1,76.51,150.07Z"/><path class="cls-1" d="M126.23,150.2c1.77,6.33-3.35,19.51-9.06,23.27a3,3,0,0,0-.39-2.58,2.37,2.37,0,0,0-1.43-.87,4.47,4.47,0,0,0-2.35.14c-1.54.5-3.08,1-4.6,1.57-.48.17-.67,0-.83-.44a11.65,11.65,0,0,1-.82-3,6.34,6.34,0,0,1,2.33-5.43A29.35,29.35,0,0,1,115,159.2a42.43,42.43,0,0,0,7.75-4.82,15.06,15.06,0,0,0,3.21-3.84C126,150.42,126,150.25,126.23,150.2Z"/><path class="cls-1" d="M107.24,162.11a68.92,68.92,0,0,1,2.57-9.08,19.7,19.7,0,0,1,4-5.82c2.44-2.62,4.63-5.46,5.2-9.31a10.51,10.51,0,0,0-.13-3.58.69.69,0,0,1,0-.61,5.06,5.06,0,0,1,1.31,1.3,22.54,22.54,0,0,1,4.48,7,8.9,8.9,0,0,1-1.81,9.61,22.15,22.15,0,0,1-3.87,3.31c-2.68,1.92-5.69,3.13-8.45,4.86A25.32,25.32,0,0,0,107.24,162.11Z"/><path class="cls-1" d="M84,133.75c-.09.77-.22,1.54-.25,2.31a12.31,12.31,0,0,0,2.07,7.12,23.41,23.41,0,0,0,3.47,4.31,17.54,17.54,0,0,1,4.38,7.24c.78,2.44,1.31,5,2,7.45a29.09,29.09,0,0,0-5.86-3.83c-1.76-.94-3.54-1.83-5.22-2.93a20.72,20.72,0,0,1-4.9-4.22,8.77,8.77,0,0,1-1.6-8.88C79.21,138.86,81.46,136.24,84,133.75Z"/><path class="cls-1" d="M105.83,151.86a22.35,22.35,0,0,1-.52-3.88c-.12-1.4-.18-2.81-.41-4.2a3.52,3.52,0,0,0-7-.05c-.38,2.28-.36,4.6-.69,6.89,0,.34-.12.67-.17,1-.12,0-.18,0-.2,0a18.86,18.86,0,0,1-3.26-6.52,6.34,6.34,0,0,1,.85-4.81,18.22,18.22,0,0,1,2.93-3.54c1.17-1.19,2.36-2.37,3.52-3.57.31-.31.58-.49.94-.08,1.74,1.93,3.72,3.6,5.41,5.59a11.47,11.47,0,0,1,1.26,1.81,6.37,6.37,0,0,1,.67,4.84A22.62,22.62,0,0,1,105.83,151.86Z"/><path class="cls-1" d="M101.14,109.61c0-.15.07-.34-.11-.45-.2.09-.18.29-.22.45a29.37,29.37,0,0,1-2.55,6.73,35.31,35.31,0,0,1-3.72,5.44c-.66.71-1.31,1.43-2,2.14a56.18,56.18,0,0,0-5.18,5.91,10.48,10.48,0,0,0-2,8.25,13.8,13.8,0,0,0,3,6,9.54,9.54,0,0,0,1.66,1.84c0-.17,0-.25,0-.32a8,8,0,0,1,3-8c1.83-1.52,3.59-3.11,5.39-4.67,0-.17.1-.22.25-.21l0,0a3.54,3.54,0,0,0,1.54-2.21A46.87,46.87,0,0,0,101,124C101.24,119.19,101.13,114.4,101.14,109.61Z"/><path class="cls-1" d="M127.55,147.45v0h0Z"/><path class="cls-1" d="M82.27,132.07l2.45-2.45c.22-.38.46-.76.72-1.13a37.65,37.65,0,0,1,4-4.73c.45-.48.91-1,1.35-1.45l1.91-2.08a32.16,32.16,0,0,0,3.43-5,27.2,27.2,0,0,0,2.32-6.13c.24-.61.61-1.49.81-2a1.31,1.31,0,0,1,.53-.61,3.88,3.88,0,0,1,3.14-.34,1.15,1.15,0,0,1,.8.8c.29,1,.87,3.09,1,3.46a25.82,25.82,0,0,0,5.2,9.57c.93,1.13,1.94,2.18,3,3.3.84.87,1.71,1.78,2.55,2.73a20.12,20.12,0,0,1,3.28,4.93l1.23.65a6,6,0,0,1,1.77,1.58l.21.25a29.16,29.16,0,0,1,3.77,5.2L101.23,17.86l-25,122.5A26.5,26.5,0,0,1,82.27,132.07Z"/><path class="cls-1" d="M98.47,132.89c0-.17.1-.22.25-.21Z"/><path class="cls-2" d="M16.09,41.38h60L68.78,167.11A7.82,7.82,0,0,0,70.19,172a36.43,36.43,0,0,0,31.35,15.5c16.57-.38,30.64-9,30.82-17.42S125.2,41.38,125.2,41.38h60L157.84,203.86s-11.55-8.62-19.8,0-15.53,23.53-37.42,24c-18,.41-33.05-15.93-40-25.71C56,195.61,43.81,203.9,42.72,204,41.79,204.06,16.09,41.38,16.09,41.38Z"/><path class="cls-2" d="M319.24,136a31.31,31.31,0,0,1-15.77-4.28,25.06,25.06,0,0,1-6-4.92,22.41,22.41,0,0,1-4-6.41,6.37,6.37,0,0,1,0-5,6.43,6.43,0,0,1,3.61-3.5,6.52,6.52,0,0,1,2.42-.48,6.63,6.63,0,0,1,3.61,1.08,6.47,6.47,0,0,1,2.49,3,10,10,0,0,0,2,3,12.7,12.7,0,0,0,3.09,2.36,17,17,0,0,0,4,1.55,19.17,19.17,0,0,0,4.56.55,17.88,17.88,0,0,0,5.53-.84,16.61,16.61,0,0,0,4.56-2.26,10.89,10.89,0,0,0,3-3.24,7.29,7.29,0,0,0,1.06-3.79,5.92,5.92,0,0,0-.56-2.5,6.73,6.73,0,0,0-2.17-2.41,24.18,24.18,0,0,0-4.87-2.66,74.58,74.58,0,0,0-8.34-2.87c-1.47-.46-3.13-1-4.94-1.59A54.9,54.9,0,0,1,307,98.53a41.08,41.08,0,0,1-5.47-3,23.58,23.58,0,0,1-4.81-4.06,19.13,19.13,0,0,1-3.43-5.38A17.42,17.42,0,0,1,292,79.22a19.74,19.74,0,0,1,2.16-9.07A23.85,23.85,0,0,1,300,62.76a28.27,28.27,0,0,1,8.68-5A30.91,30.91,0,0,1,319.24,56a31.68,31.68,0,0,1,8.06,1,30.83,30.83,0,0,1,7.22,2.91,25.3,25.3,0,0,1,5.9,4.55,22.65,22.65,0,0,1,4.16,6,6.47,6.47,0,0,1,.2,5,6.57,6.57,0,0,1-3.32,3.72,6.74,6.74,0,0,1-2.76.65,6.65,6.65,0,0,1-3.49-1,6.58,6.58,0,0,1-2.52-2.84,10.43,10.43,0,0,0-2-2.85A13,13,0,0,0,327.59,71a16.89,16.89,0,0,0-3.92-1.45,18.52,18.52,0,0,0-4.43-.52,17.82,17.82,0,0,0-5.52.84,15.93,15.93,0,0,0-4.55,2.29,10.91,10.91,0,0,0-3,3.28,7.17,7.17,0,0,0-1.07,3.78,4.89,4.89,0,0,0,.78,2.67,9.12,9.12,0,0,0,2.64,2.56,27.51,27.51,0,0,0,5,2.61c2.1.88,4.68,1.78,7.65,2.68,1.32.36,2.88.83,4.6,1.37a53.4,53.4,0,0,1,5.44,2.06,43.29,43.29,0,0,1,5.5,2.9,23.68,23.68,0,0,1,4.93,4.11,19.94,19.94,0,0,1,3.53,5.48,17.67,17.67,0,0,1,1.35,7.06,19.87,19.87,0,0,1-2.16,9.07,23.91,23.91,0,0,1-5.89,7.39,28.35,28.35,0,0,1-8.65,5A30.62,30.62,0,0,1,319.24,136Z"/><path class="cls-2" d="M320.89,90.66c1.32.37,2.85.83,4.59,1.37s3.51,1.23,5.34,2a41.53,41.53,0,0,1,5.38,2.85,22,22,0,0,1,4.72,3.94,18.57,18.57,0,0,1,3.36,5.2,16.51,16.51,0,0,1,1.27,6.68,18.76,18.76,0,0,1-2.06,8.63,22.63,22.63,0,0,1-5.65,7.09,27.11,27.11,0,0,1-8.36,4.8,30.29,30.29,0,0,1-25.51-2.4,24.07,24.07,0,0,1-5.76-4.72,21.54,21.54,0,0,1-3.84-6.14,5.4,5.4,0,0,1,0-4.28,5.49,5.49,0,0,1,3.09-3,5.62,5.62,0,0,1,7.26,3.08,10.65,10.65,0,0,0,2.16,3.26,13.43,13.43,0,0,0,3.32,2.53,17.4,17.4,0,0,0,4.25,1.65,19.57,19.57,0,0,0,4.79.58,18.87,18.87,0,0,0,5.83-.89,17.12,17.12,0,0,0,4.82-2.4,11.58,11.58,0,0,0,3.29-3.53,8.22,8.22,0,0,0,1.2-4.28,6.93,6.93,0,0,0-.65-2.91,7.66,7.66,0,0,0-2.47-2.77,25,25,0,0,0-5.06-2.78,76.06,76.06,0,0,0-8.46-2.91c-1.47-.46-3.1-1-4.9-1.58a55.07,55.07,0,0,1-5.45-2.12,39.66,39.66,0,0,1-5.34-2.91,23,23,0,0,1-4.63-3.91,18.19,18.19,0,0,1-3.25-5.1,16.43,16.43,0,0,1-1.23-6.51A18.79,18.79,0,0,1,295,70.59a22.89,22.89,0,0,1,5.65-7.09A27.32,27.32,0,0,1,309,58.71,29.48,29.48,0,0,1,319.24,57a30.56,30.56,0,0,1,7.81,1,29.47,29.47,0,0,1,7,2.81,24.41,24.41,0,0,1,5.69,4.39,21.63,21.63,0,0,1,4,5.78,5.51,5.51,0,0,1,.17,4.29A5.59,5.59,0,0,1,341,78.4a5.42,5.42,0,0,1-5.31-.31,5.56,5.56,0,0,1-2.16-2.43,11.39,11.39,0,0,0-2.23-3.12,13.57,13.57,0,0,0-3.28-2.39,17.81,17.81,0,0,0-4.15-1.55,20,20,0,0,0-4.66-.54,18.56,18.56,0,0,0-5.82.89,16.59,16.59,0,0,0-4.83,2.43,12.16,12.16,0,0,0-3.29,3.56,8.27,8.27,0,0,0-1.2,4.28,5.87,5.87,0,0,0,.93,3.19,10,10,0,0,0,2.91,2.84A27.9,27.9,0,0,0,313.15,88Q316.36,89.29,320.89,90.66Z"/><path class="cls-2" d="M400.71,136a6.47,6.47,0,0,1-6.51-6.52V112.72a9.87,9.87,0,0,0-.81-4,10.39,10.39,0,0,0-2.2-3.23,10.57,10.57,0,0,0-3.23-2.2,9.87,9.87,0,0,0-4-.8H366.4v26.91a6.28,6.28,0,0,1-1.93,4.63,6.44,6.44,0,0,1-4.65,1.89,6.47,6.47,0,0,1-6.52-6.52V62.51A6.45,6.45,0,0,1,359.82,56H384a22.6,22.6,0,0,1,9.08,1.83,23.55,23.55,0,0,1,12.39,12.39A23.12,23.12,0,0,1,405.15,89a24.1,24.1,0,0,1-5,7,23.89,23.89,0,0,1,5,7,22.6,22.6,0,0,1,2.15,9.76v16.72a6.28,6.28,0,0,1-1.93,4.63A6.46,6.46,0,0,1,400.71,136ZM384,89.42a9.71,9.71,0,0,0,4-.81,10.39,10.39,0,0,0,5.43-5.43,10.09,10.09,0,0,0,0-7.92,10.51,10.51,0,0,0-2.2-3.23,10.75,10.75,0,0,0-3.23-2.2,9.87,9.87,0,0,0-4-.8H366.4V89.42Z"/><path class="cls-2" d="M406.33,79.22a21.39,21.39,0,0,1-2.05,9.32,22.87,22.87,0,0,1-5.55,7.4,22.67,22.67,0,0,1,5.55,7.43,21.62,21.62,0,0,1,2.05,9.35v16.72a5.34,5.34,0,0,1-1.64,3.94,5.49,5.49,0,0,1-4,1.61,5.5,5.5,0,0,1-5.54-5.55V112.72a10.59,10.59,0,0,0-.9-4.35,11.65,11.65,0,0,0-2.39-3.53,11.53,11.53,0,0,0-3.53-2.39,10.58,10.58,0,0,0-4.35-.89H365.43v27.88a5.3,5.3,0,0,1-1.64,3.94,5.49,5.49,0,0,1-4,1.61,5.5,5.5,0,0,1-5.55-5.55V62.51A5.5,5.5,0,0,1,359.82,57H384a21.64,21.64,0,0,1,8.7,1.75,22.51,22.51,0,0,1,11.88,11.88A21.44,21.44,0,0,1,406.33,79.22ZM384,90.39a10.75,10.75,0,0,0,4.35-.89,11.34,11.34,0,0,0,5.92-5.93,11,11,0,0,0,0-8.7,11.65,11.65,0,0,0-2.39-3.53A11.53,11.53,0,0,0,388.35,69a10.58,10.58,0,0,0-4.35-.89H365.43V90.39Z"/><path class="cls-2" d="M421.68,136a6.47,6.47,0,0,1-6.52-6.52V62.51A6.45,6.45,0,0,1,421.68,56a6.42,6.42,0,0,1,4.65,1.89,6.25,6.25,0,0,1,1.93,4.63v66.93a6.28,6.28,0,0,1-1.93,4.63A6.44,6.44,0,0,1,421.68,136Z"/><path class="cls-2" d="M421.68,57a5.49,5.49,0,0,1,4,1.61,5.28,5.28,0,0,1,1.64,3.94v66.93a5.3,5.3,0,0,1-1.64,3.94,5.49,5.49,0,0,1-4,1.61,5.5,5.5,0,0,1-5.55-5.55V62.51A5.5,5.5,0,0,1,421.68,57Z"/><path class="cls-2" d="M547.07,136a58.46,58.46,0,0,1-16.68-2.41,62.87,62.87,0,0,1-15.27-6.82A65.16,65.16,0,0,1,502,116.06a63.81,63.81,0,0,1-9.74-13.53h-18v26.91a6.25,6.25,0,0,1-1.94,4.63,6.42,6.42,0,0,1-4.65,1.89,6.49,6.49,0,0,1-6.52-6.52V62.51A6.47,6.47,0,0,1,467.67,56h24.19a22.6,22.6,0,0,1,9.08,1.83,23.55,23.55,0,0,1,12.39,12.39,23.2,23.2,0,0,1-1.18,20.46A24.07,24.07,0,0,1,505,98.43a50.24,50.24,0,0,0,17.6,17.74,48.19,48.19,0,0,0,11.68,5,47.35,47.35,0,0,0,22.29.78,50.9,50.9,0,0,0,9.17-2.86,6.11,6.11,0,0,1,2.57-.56,6.58,6.58,0,0,1,3.56,1,6.32,6.32,0,0,1,2.46,2.89,6.48,6.48,0,0,1,0,5,6.56,6.56,0,0,1-3.48,3.56A59.93,59.93,0,0,1,547.07,136ZM491.86,89.42a9.63,9.63,0,0,0,3.95-.81,10.58,10.58,0,0,0,3.24-2.19,10.71,10.71,0,0,0,2.19-3.24,9.71,9.71,0,0,0,.81-4,9.55,9.55,0,0,0-.81-3.89,10.39,10.39,0,0,0-5.43-5.43,9.83,9.83,0,0,0-3.95-.81h-17.6V89.42Zm53.91,22.22a21.36,21.36,0,0,1-8.53-1.73,21.92,21.92,0,0,1-11.68-11.63,21.39,21.39,0,0,1-1.72-8.51V62.51a5.83,5.83,0,0,1,1.71-4.21,6,6,0,0,1,10.23,4.21V89.77a9.66,9.66,0,0,0,2.93,7,10.47,10.47,0,0,0,3.2,2.13,9.75,9.75,0,0,0,3.86.78,10.06,10.06,0,0,0,3.9-.78,10.38,10.38,0,0,0,3.23-2.13,9.85,9.85,0,0,0,2.15-3.15,9.66,9.66,0,0,0,.78-3.87V62.51a5.87,5.87,0,0,1,1.71-4.21,6,6,0,0,1,10.23,4.21V89.77a21.39,21.39,0,0,1-1.72,8.51,22.25,22.25,0,0,1-4.73,7,22.65,22.65,0,0,1-7,4.68A21.36,21.36,0,0,1,545.77,111.64Z"/><path class="cls-2" d="M573.45,122.86a5.48,5.48,0,0,1,0,4.28,5.57,5.57,0,0,1-3,3,59,59,0,0,1-23.43,4.8,57.34,57.34,0,0,1-16.41-2.37,61.83,61.83,0,0,1-15-6.71,63.37,63.37,0,0,1-22.75-24.35H473.29v27.88a5.34,5.34,0,0,1-1.64,3.94,5.51,5.51,0,0,1-4,1.61,5.5,5.5,0,0,1-5.55-5.55V62.51A5.5,5.5,0,0,1,467.67,57h24.19a21.64,21.64,0,0,1,8.7,1.75,22.51,22.51,0,0,1,11.88,11.88,22.23,22.23,0,0,1-1.13,19.59,23.07,23.07,0,0,1-7.6,7.95A51.22,51.22,0,0,0,522.1,117,49.24,49.24,0,0,0,534,122.11a48.38,48.38,0,0,0,22.74.79,52,52,0,0,0,9.36-2.92,5.08,5.08,0,0,1,2.19-.48,5.64,5.64,0,0,1,3.05.89A5.49,5.49,0,0,1,573.45,122.86ZM473.29,90.39h18.57a10.75,10.75,0,0,0,4.35-.89,11.43,11.43,0,0,0,5.92-5.93,10.9,10.9,0,0,0,0-8.63A11.36,11.36,0,0,0,496.21,69a10.59,10.59,0,0,0-4.35-.9H473.29Zm72.48,20.28a20.37,20.37,0,0,1-8.15-1.65,21,21,0,0,1-6.68-4.48,21.21,21.21,0,0,1-4.49-6.65,20.15,20.15,0,0,1-1.64-8.12V62.51A4.87,4.87,0,0,1,526.25,59a4.76,4.76,0,0,1,3.56-1.47,5,5,0,0,1,5,5V89.77A10.65,10.65,0,0,0,538,97.48a11.41,11.41,0,0,0,3.49,2.33,10.65,10.65,0,0,0,4.25.86,10.87,10.87,0,0,0,4.28-.86,11.36,11.36,0,0,0,3.53-2.33,10.75,10.75,0,0,0,3.22-7.71V62.51A4.87,4.87,0,0,1,558.24,59a4.78,4.78,0,0,1,3.56-1.47,5,5,0,0,1,5,5V89.77a20.32,20.32,0,0,1-1.64,8.12,21.12,21.12,0,0,1-4.52,6.65,21.49,21.49,0,0,1-6.72,4.48A20.4,20.4,0,0,1,545.77,110.67Z"/><path class="cls-2" d="M587.53,136a6.25,6.25,0,0,1-4.63-1.93,6.4,6.4,0,0,1-1.89-4.65V62.51a6.56,6.56,0,0,1,11.17-4.63,6.26,6.26,0,0,1,1.94,4.63v25L623.7,57.92A6.38,6.38,0,0,1,628.36,56a6.59,6.59,0,0,1,2.48.48A5.77,5.77,0,0,1,633,58a6.51,6.51,0,0,1,0,9.22L604.31,95.8l28.84,28.84a6.56,6.56,0,0,1-4.66,11.18,6.54,6.54,0,0,1-4.59-1.93L594.12,104.1v25.34a6.57,6.57,0,0,1-6.59,6.58Z"/><path class="cls-2" d="M632.47,125.33a5.55,5.55,0,0,1,0,7.88,5.44,5.44,0,0,1-4,1.64,5.55,5.55,0,0,1-2-.41,5.65,5.65,0,0,1-1.85-1.23l-31.44-31.45v27.68a5.62,5.62,0,0,1-5.62,5.61,5.27,5.27,0,0,1-3.94-1.64,5.49,5.49,0,0,1-1.61-4V62.51A5.5,5.5,0,0,1,587.53,57a5.47,5.47,0,0,1,4,1.61,5.29,5.29,0,0,1,1.65,3.94V89.84L624.38,58.6a5.44,5.44,0,0,1,4-1.64,5.71,5.71,0,0,1,2.12.41,4.68,4.68,0,0,1,1.78,1.23,5.53,5.53,0,0,1,0,7.88L602.94,95.8Z"/><path class="cls-2" d="M691.72,136a6.47,6.47,0,0,1-6.51-6.52V102H653v27.46a6.25,6.25,0,0,1-1.94,4.63,6.42,6.42,0,0,1-4.65,1.89,6.49,6.49,0,0,1-6.52-6.52V62.51a6.42,6.42,0,0,1,1.89-4.65,6.25,6.25,0,0,1,4.63-1.94A6.59,6.59,0,0,1,653,62.51V90h32.18V62.51a6.42,6.42,0,0,1,1.88-4.65,6.25,6.25,0,0,1,4.63-1.94,6.59,6.59,0,0,1,6.59,6.59v66.93a6.28,6.28,0,0,1-1.93,4.63A6.46,6.46,0,0,1,691.72,136Z"/><path class="cls-2" d="M691.72,56.89a5.6,5.6,0,0,1,5.62,5.62v66.93a5.34,5.34,0,0,1-1.64,3.94,5.49,5.49,0,0,1-4,1.61,5.5,5.5,0,0,1-5.54-5.55V101H652.06v28.43a5.34,5.34,0,0,1-1.64,3.94,5.51,5.51,0,0,1-4,1.61,5.5,5.5,0,0,1-5.55-5.55V62.51a5.51,5.51,0,0,1,1.61-4,5.34,5.34,0,0,1,3.94-1.64,5.6,5.6,0,0,1,5.62,5.62V90.94h34.12V62.51a5.47,5.47,0,0,1,1.61-4A5.3,5.3,0,0,1,691.72,56.89Z"/><path class="cls-2" d="M758.31,136a6.52,6.52,0,0,1-3.69-1.13,6.19,6.19,0,0,1-2.43-3.15l-5.79-15.93H721.65l-5.79,15.94a6.21,6.21,0,0,1-2.43,3.14,6.5,6.5,0,0,1-3.69,1.13,8,8,0,0,1-1.1-.08,4.54,4.54,0,0,1-1.2-.35,6.7,6.7,0,0,1-2.19-1.34,6.24,6.24,0,0,1-1.49-2,6.48,6.48,0,0,1-.6-2.4,6.16,6.16,0,0,1,.4-2.59l24.31-66.92a6.88,6.88,0,0,1,2.36-3.13A6.3,6.3,0,0,1,734,55.92a6.38,6.38,0,0,1,3.78,1.21,6.5,6.5,0,0,1,2.4,3.12l24.33,66.94a6.4,6.4,0,0,1,.4,2.58,6.69,6.69,0,0,1-.61,2.4,6.24,6.24,0,0,1-1.49,2,6.76,6.76,0,0,1-2.2,1.35A5.58,5.58,0,0,1,758.31,136Zm-16.25-32.15L734,81.65l-8,22.16Z"/><path class="cls-2" d="M763.59,127.52a5.4,5.4,0,0,1,.34,2.19,5.94,5.94,0,0,1-.51,2.06,5.37,5.37,0,0,1-1.27,1.71,5.84,5.84,0,0,1-1.92,1.16,4.61,4.61,0,0,1-1.92.35,5.56,5.56,0,0,1-3.15-1,5.24,5.24,0,0,1-2-2.67l-6-16.58H721l-6,16.58a5.25,5.25,0,0,1-2.06,2.67,5.56,5.56,0,0,1-3.15,1,7.75,7.75,0,0,1-1-.07,3.87,3.87,0,0,1-1-.28,5.84,5.84,0,0,1-1.92-1.16,5.34,5.34,0,0,1-1.26-1.71,5.74,5.74,0,0,1-.52-2.06,5.25,5.25,0,0,1,.35-2.19l24.32-66.93a5.65,5.65,0,0,1,2-2.67,5.19,5.19,0,0,1,3.18-1,5.37,5.37,0,0,1,3.22,1,5.61,5.61,0,0,1,2.06,2.67Zm-20.14-22.74-9.46-26-9.38,26Z"/><path class="cls-2" d="M831.68,136a6.36,6.36,0,0,1-4.58-1.89,6.25,6.25,0,0,1-1.94-4.63V86.94l-15.52,26.82a6.73,6.73,0,0,1-2.37,2.4,6.3,6.3,0,0,1-3.27.89,6.45,6.45,0,0,1-3.29-.89,6.53,6.53,0,0,1-2.41-2.4L782.85,87v42.49a6.25,6.25,0,0,1-1.94,4.63,6.44,6.44,0,0,1-4.65,1.89,6.49,6.49,0,0,1-6.52-6.52V62.51a6.22,6.22,0,0,1,1.38-4,6.44,6.44,0,0,1,5.16-2.59,6.51,6.51,0,0,1,2.51.51A6.44,6.44,0,0,1,782,59.21l22,38.15,22-38.15a6.4,6.4,0,0,1,3.17-2.77,6.46,6.46,0,0,1,2.5-.51,6.7,6.7,0,0,1,1.71.23,6.77,6.77,0,0,1,3.46,2.36,6.22,6.22,0,0,1,1.38,4v66.93a6.25,6.25,0,0,1-1.94,4.63A6.44,6.44,0,0,1,831.68,136Z"/><path class="cls-2" d="M833.19,57.1a5.74,5.74,0,0,1,2.94,2,5.29,5.29,0,0,1,1.17,3.39v66.93a5.31,5.31,0,0,1-1.65,3.94,5.47,5.47,0,0,1-4,1.61,5.38,5.38,0,0,1-3.9-1.61,5.31,5.31,0,0,1-1.65-3.94V83.33L808.8,113.27a5.7,5.7,0,0,1-2,2.06,5.37,5.37,0,0,1-2.78.75,5.49,5.49,0,0,1-2.8-.75,5.58,5.58,0,0,1-2.06-2.06L781.88,83.33v46.11a5.31,5.31,0,0,1-1.65,3.94,5.47,5.47,0,0,1-4,1.61,5.5,5.5,0,0,1-5.55-5.55V62.51a5.29,5.29,0,0,1,1.17-3.39,5.74,5.74,0,0,1,2.94-2,5.56,5.56,0,0,1,3.6.24,5.4,5.4,0,0,1,2.7,2.36L804,99.3l22.89-39.6a5.36,5.36,0,0,1,2.7-2.36A5.56,5.56,0,0,1,833.19,57.1Z"/><path class="cls-2" d="M853.4,136a6.47,6.47,0,0,1-6.52-6.52V62.51A6.45,6.45,0,0,1,853.4,56a6.42,6.42,0,0,1,4.65,1.89A6.25,6.25,0,0,1,860,62.51v66.93a6.28,6.28,0,0,1-1.93,4.63A6.46,6.46,0,0,1,853.4,136Z"/><path class="cls-2" d="M853.4,57a5.49,5.49,0,0,1,4,1.61A5.28,5.28,0,0,1,859,62.51v66.93a5.3,5.3,0,0,1-1.64,3.94,5.49,5.49,0,0,1-4,1.61,5.5,5.5,0,0,1-5.55-5.55V62.51A5.5,5.5,0,0,1,853.4,57Z"/><path class="cls-2" d="M919,136a6.74,6.74,0,0,1-3.08-.76,6.2,6.2,0,0,1-2.39-2.15L881.7,84.46v45a6.25,6.25,0,0,1-1.94,4.63,6.44,6.44,0,0,1-4.65,1.89,6.49,6.49,0,0,1-6.52-6.52V62.51a6.28,6.28,0,0,1,1.94-4.68A6.54,6.54,0,0,1,875.18,56a6.31,6.31,0,0,1,5.45,2.88l31.81,48.61v-45a6.25,6.25,0,0,1,1.93-4.63,6.53,6.53,0,0,1,11.17,4.63v66.93a6.27,6.27,0,0,1-1.9,4.66A6.39,6.39,0,0,1,919,136Z"/><path class="cls-2" d="M919,57a5.5,5.5,0,0,1,5.55,5.55v66.93a5.29,5.29,0,0,1-1.61,4A5.42,5.42,0,0,1,919,135a5.71,5.71,0,0,1-2.63-.65,5.25,5.25,0,0,1-2-1.82L880.73,81.21v48.23a5.31,5.31,0,0,1-1.65,3.94,5.47,5.47,0,0,1-4,1.61,5.5,5.5,0,0,1-5.55-5.55V62.51a5.29,5.29,0,0,1,1.65-4,5.52,5.52,0,0,1,4-1.57,5.39,5.39,0,0,1,4.66,2.46l33.57,51.32V62.51a5.28,5.28,0,0,1,1.64-3.94A5.49,5.49,0,0,1,919,57Z"/><path class="cls-2" d="M940.67,136a6.47,6.47,0,0,1-6.52-6.52V62.51a6.56,6.56,0,0,1,11.17-4.63,6.26,6.26,0,0,1,1.94,4.63v66.93a6.29,6.29,0,0,1-1.94,4.63A6.44,6.44,0,0,1,940.67,136Z"/><path class="cls-2" d="M940.67,57a5.47,5.47,0,0,1,4,1.61,5.29,5.29,0,0,1,1.65,3.94v66.93a5.31,5.31,0,0,1-1.65,3.94,5.47,5.47,0,0,1-4,1.61,5.5,5.5,0,0,1-5.55-5.55V62.51A5.5,5.5,0,0,1,940.67,57Z"/><path class="cls-2" d="M552.34,87.15a6.54,6.54,0,0,1-13.07,0c0-3.61,2.92-20.67,6.53-20.67S552.34,83.54,552.34,87.15Z"/><path class="cls-1" d="M317.86,163.85a2.33,2.33,0,0,1,1.06,1.53,2.37,2.37,0,0,1-.33,1.84l-10.49,16.1v12a2.45,2.45,0,1,1-4.89,0v-12l-10.49-16.1a2.38,2.38,0,0,1-.34-1.84,2.22,2.22,0,0,1,1.07-1.53,2.38,2.38,0,0,1,1.32-.4,2.52,2.52,0,0,1,1.16.29,2.44,2.44,0,0,1,.92.83l8.8,13.5,8.81-13.5a2.37,2.37,0,0,1,.92-.83,2.49,2.49,0,0,1,1.16-.29A2.38,2.38,0,0,1,317.86,163.85Z"/><path class="cls-1" d="M349.9,163.45a15,15,0,0,1,6.31,1.35,16.07,16.07,0,0,1,5.13,3.67,17.72,17.72,0,0,1,3.47,5.46,17.31,17.31,0,0,1,1.28,6.68,18,18,0,0,1-.57,4.56,17.72,17.72,0,0,1-1.63,4.1,16.24,16.24,0,0,1-2.55,3.48,16.78,16.78,0,0,1-3.28,2.69,16,16,0,0,1-3.86,1.73,15.19,15.19,0,0,1-8.59,0,16,16,0,0,1-3.86-1.73,16.78,16.78,0,0,1-3.28-2.69,16.24,16.24,0,0,1-2.55-3.48,17.29,17.29,0,0,1-1.63-4.1,18,18,0,0,1-.57-4.56,17.31,17.31,0,0,1,1.28-6.68,17.72,17.72,0,0,1,3.47-5.46,16.07,16.07,0,0,1,5.13-3.67A15,15,0,0,1,349.9,163.45Zm0,29.43a10.3,10.3,0,0,0,4.41-1,11.53,11.53,0,0,0,3.57-2.62,12.61,12.61,0,0,0,2.41-3.91,13,13,0,0,0-2.41-13.44,11.44,11.44,0,0,0-3.57-2.64,10.52,10.52,0,0,0-8.78,0,11.48,11.48,0,0,0-3.58,2.64,12.59,12.59,0,0,0-2.43,3.9,13.23,13.23,0,0,0,0,9.54,12.29,12.29,0,0,0,2.43,3.91,11.58,11.58,0,0,0,3.58,2.62A10.22,10.22,0,0,0,349.9,192.88Z"/><path class="cls-1" d="M413.36,180.85a2.46,2.46,0,0,1,1.9.87,2.4,2.4,0,0,1,.54,2,17.74,17.74,0,0,1-2,5.65,17.14,17.14,0,0,1-3.57,4.45,16.17,16.17,0,0,1-4.78,2.92,15.28,15.28,0,0,1-9.9.44,15.81,15.81,0,0,1-3.86-1.73,16.84,16.84,0,0,1-3.29-2.69,16.54,16.54,0,0,1-2.54-3.48,17.29,17.29,0,0,1-1.63-4.1,18,18,0,0,1-.57-4.56,17.31,17.31,0,0,1,1.28-6.68,17.88,17.88,0,0,1,3.46-5.46,16.48,16.48,0,0,1,5.14-3.69,15,15,0,0,1,6.3-1.36,15.31,15.31,0,0,1,6.51,1.45,16.08,16.08,0,0,1,5.4,4.1,2.41,2.41,0,0,1,.59,1.79,2.35,2.35,0,0,1-.86,1.68,1.94,1.94,0,0,1-.76.47,2.72,2.72,0,0,1-.84.13,2.32,2.32,0,0,1-1.84-.84,11.33,11.33,0,0,0-3.74-2.87,10.34,10.34,0,0,0-4.46-1,10.21,10.21,0,0,0-4.37,1,11.64,11.64,0,0,0-3.59,2.64,13.08,13.08,0,0,0-2.42,13.44,12.45,12.45,0,0,0,2.42,3.91,11.74,11.74,0,0,0,3.59,2.62,10.22,10.22,0,0,0,4.37,1,10,10,0,0,0,3.24-.52,11.22,11.22,0,0,0,2.9-1.44,11.83,11.83,0,0,0,2.39-2.25,11.46,11.46,0,0,0,1.72-2.91H400a2.48,2.48,0,0,1-2.47-2.47,2.3,2.3,0,0,1,.73-1.73,2.36,2.36,0,0,1,1.74-.71Z"/><path class="cls-1" d="M457.4,194.5a2.35,2.35,0,0,1,.15,1,2.5,2.5,0,0,1-.78,1.66,2.71,2.71,0,0,1-.85.51,2,2,0,0,1-.84.15,2.45,2.45,0,0,1-1.39-.42,2.32,2.32,0,0,1-.9-1.18l-2.66-7.29H438.65L436,196.19a2.34,2.34,0,0,1-.91,1.18,2.44,2.44,0,0,1-1.38.42,3,3,0,0,1-.43,0,1.66,1.66,0,0,1-.42-.12,2.49,2.49,0,0,1-1.4-1.27,2.49,2.49,0,0,1-.23-.9,2.35,2.35,0,0,1,.15-1l10.71-29.45a2.5,2.5,0,0,1,.88-1.17,2.39,2.39,0,0,1,2.82,0,2.5,2.5,0,0,1,.91,1.17Zm-8.86-10-4.16-11.43-4.13,11.43Z"/><path class="cls-1" d="M530.44,200.08c-1.15-1.15-2.24-2.29-3.8-4a16.64,16.64,0,0,1-11.88,4.64c-7.9,0-12.48-5.3-12.48-11.39,0-5.55,3.32-9.35,8-11.88v-.18a13.94,13.94,0,0,1-3.38-8.5,9.86,9.86,0,0,1,10.31-10c5.07,0,9,3.38,9,8.63,0,4.28-2.48,7.65-8.93,10.85v.18c3.44,4,7.3,8.44,9.89,11.33,1.87-2.83,3.13-6.75,3.92-11.88h4.82c-1.08,6.4-2.83,11.46-5.85,15,2.17,2.29,4.28,4.58,6.69,7.17Zm-6.4-7c-2.41-2.66-6.93-7.6-11.45-12.78-2.17,1.38-5.24,4-5.24,8.26a8,8,0,0,0,8.32,8.19A11.32,11.32,0,0,0,524,193.09Zm-12.35-24.78c0,2.89,1.32,5.12,3.07,7.29,4.1-2.35,6.75-4.52,6.75-7.95,0-2.48-1.38-5.25-4.7-5.25S511.69,165.17,511.69,168.31Z"/><path class="cls-1" d="M588.85,200.08l-10.3-40.63h5.54L588.91,180c1.21,5.07,2.3,10.13,3,14.05h.12c.66-4,1.93-8.86,3.32-14.11l5.42-20.49h5.49l4.94,20.62c1.15,4.82,2.23,9.64,2.83,13.92h.12c.85-4.46,2-9,3.26-14.05l5.36-20.49h5.37l-11.51,40.63h-5.49L606,178.92a123.08,123.08,0,0,1-2.66-13.26h-.12a128,128,0,0,1-3.13,13.26l-5.79,21.16Z"/><path class="cls-1" d="M669.34,181h-15.8v14.65h17.61v4.4H648.3V159.45h21.94v4.4h-16.7v12.84h15.8Z"/><path class="cls-1" d="M693,159.45h5.25v36.23h17.36v4.4H693Z"/><path class="cls-1" d="M736.56,159.45h5.24v36.23h17.37v4.4H736.56Z"/><path class="cls-1" d="M780.09,200.08V159.45h5.72l13,20.55a115,115,0,0,1,7.3,13.21l.12-.06c-.48-5.43-.6-10.37-.6-16.7v-17h4.94v40.63h-5.31l-12.9-20.62a129.45,129.45,0,0,1-7.59-13.56l-.18.06c.3,5.12.42,10,.42,16.76v17.36Z"/><path class="cls-1" d="M855.87,181h-15.8v14.65h17.6v4.4H834.83V159.45h21.94v4.4h-16.7v12.84h15.8Z"/><path class="cls-1" d="M878.84,193.69a18.53,18.53,0,0,0,9.4,2.65c5.37,0,8.5-2.83,8.5-6.93,0-3.8-2.17-6-7.66-8.08-6.63-2.35-10.73-5.79-10.73-11.51,0-6.33,5.25-11,13.15-11a18.51,18.51,0,0,1,9,2L899,165.05a16.24,16.24,0,0,0-7.72-1.93c-5.54,0-7.65,3.32-7.65,6.09,0,3.8,2.47,5.67,8.08,7.84,6.87,2.65,10.37,6,10.37,11.94,0,6.27-4.65,11.69-14.23,11.69-3.92,0-8.2-1.14-10.37-2.59Z"/><path class="cls-1" d="M923.63,193.69a18.55,18.55,0,0,0,9.4,2.65c5.37,0,8.5-2.83,8.5-6.93,0-3.8-2.17-6-7.65-8.08-6.63-2.35-10.73-5.79-10.73-11.51,0-6.33,5.24-11,13.14-11a18.51,18.51,0,0,1,9,2l-1.45,4.28a16.16,16.16,0,0,0-7.71-1.93c-5.55,0-7.66,3.32-7.66,6.09,0,3.8,2.47,5.67,8.08,7.84,6.87,2.65,10.37,6,10.37,11.94,0,6.27-4.64,11.69-14.23,11.69-3.92,0-8.2-1.14-10.37-2.59Z"/><rect class="cls-1" x="229.02" y="55.15" width="6.05" height="149.62"/></svg>