<svg id="Layer_1" data-name="Layer 1" xmlns="http://www.w3.org/2000/svg" viewBox="0 0 800.07 458.33"><defs><style>.cls-1{fill:#fff;}.cls-2{fill:#986b4f;}.cls-3{fill:#3c984b;}</style></defs><path class="cls-1" d="M750.5,279.06a34.87,34.87,0,0,0-34.94-34.87,35,35,0,0,0-10.82,1.71,35.06,35.06,0,0,0-32.74,6,34.49,34.49,0,0,0-21.93-7.7,35.16,35.16,0,0,0-10.89,1.73,35.11,35.11,0,0,0-21.71,0l-.82-.29c-.41-.12-.82-.24-1.23-.34a35.05,35.05,0,0,0-8.8-1.13,35,35,0,0,0-27.72,13.69,35,35,0,0,0-27.72-13.69,35.27,35.27,0,0,0-8.87,1.14l-1.24.35a35.26,35.26,0,0,0-11,5.69c-.3-.23-.59-.48-.9-.7a34.85,34.85,0,0,0-40.77.19c-.21.15-.39.32-.59.47a34.56,34.56,0,0,0-19.54-7.11,28.3,28.3,0,0,0,11.41-18.31L507,63.38a28.34,28.34,0,0,0-28-33h-56l-.17-.82A28.35,28.35,0,0,0,395.13,6.81h0a28.35,28.35,0,0,0-27.77,22.68l-.17.85H310a28.33,28.33,0,0,0-28,32.77c.06.4,6.5,41.15,13,81.37,3.81,23.66,6.88,42.52,9.14,56.06,1.35,8.11,2.43,14.41,3.2,18.73.44,2.49.81,4.45,1.08,5.78,2.57,12.76,9.77,18.9,16.29,21.85a33.62,33.62,0,0,0-4,1.78,34.45,34.45,0,0,0-32.39.21c-.4-.19-.81-.37-1.21-.54a50.89,50.89,0,0,0-20.33-4.16H242.57a34.65,34.65,0,0,0-23,8.63,35,35,0,0,0-39.93-4.27l-.44-.2a50.82,50.82,0,0,0-20.33-4.16H134.71a34.7,34.7,0,0,0-17.43,4.65,59.43,59.43,0,0,0-23.14-4.65,59.08,59.08,0,0,0-20.25,3.52,56.65,56.65,0,0,0-17.31,10,52.09,52.09,0,0,0-12.83,16.17,48,48,0,0,0-5.24,21.91,45.57,45.57,0,0,0,3.61,18.06c.54,1.26,1.13,2.49,1.76,3.69a33.46,33.46,0,0,0-1.58,3.24,34.68,34.68,0,0,0-.18,26.85,50.41,50.41,0,0,0,7,12,30.75,30.75,0,0,0-5.3,39.53l6,9.19v3.61a30.79,30.79,0,0,0,50.79,23.41c.38.25.74.51,1.13.75a44.54,44.54,0,0,0,10.69,4.82,43.52,43.52,0,0,0,24.84,0,44.39,44.39,0,0,0,10.72-4.83c.63-.39,1.24-.8,1.84-1.22.61.42,1.22.84,1.86,1.23a44.36,44.36,0,0,0,10.69,4.82,43.7,43.7,0,0,0,28.51-1.25c.82-.33,1.63-.69,2.43-1.07a31.75,31.75,0,0,0,4,1.95,29.59,29.59,0,0,0,7,1.86,31,31,0,0,0,4.41.32,30.67,30.67,0,0,0,10.68-1.91A30.72,30.72,0,0,0,230,442.69a30.89,30.89,0,0,0,20.83-8.11,30.66,30.66,0,0,0,5.1-6.05,40.81,40.81,0,0,0,33.75,17.11,47.22,47.22,0,0,0,10.43-1.15,28.65,28.65,0,0,0,5.25.49h6.27a28.36,28.36,0,0,0,26-17l.09-.22A28.35,28.35,0,0,0,363.75,445h5.48a28.32,28.32,0,0,0,8.41-1.28,28.32,28.32,0,0,0,8.41,1.28h5.49a28.29,28.29,0,0,0,15.81-4.84A28.23,28.23,0,0,0,423.19,445H446A28.22,28.22,0,0,0,457,442.79,28.29,28.29,0,0,0,467.92,445h22.61A28.38,28.38,0,0,0,501,443a28.42,28.42,0,0,0,10.46,2h22.61a28.42,28.42,0,0,0,10.46-2A28.38,28.38,0,0,0,555,445h4.94a28.22,28.22,0,0,0,10.14-1.87A28.26,28.26,0,0,0,580.18,445h5.3a28.22,28.22,0,0,0,12.12-2.72A28.26,28.26,0,0,0,609.72,445h22.85a28.31,28.31,0,0,0,12.1-2.71,51.73,51.73,0,0,0,18.1,3.31,45.84,45.84,0,0,0,22-5.41,50.55,50.55,0,0,0,22.8,5.41c24.27,0,42.57-17.21,42.57-40a40,40,0,0,0-3.78-17.19l.66-1.94a28.36,28.36,0,0,0-1.69-22.13A34.62,34.62,0,0,0,750.5,346Z"/><path class="cls-2" d="M92.76,369.4a2.32,2.32,0,0,1,1,1.54,2.36,2.36,0,0,1-.33,1.83L83,388.87v12a2.44,2.44,0,1,1-4.88,0v-12l-10.49-16.1a2.37,2.37,0,0,1-.35-1.83,2.25,2.25,0,0,1,1.07-1.54,2.38,2.38,0,0,1,1.33-.39,2.54,2.54,0,0,1,1.16.28,2.52,2.52,0,0,1,.92.83l8.8,13.51,8.8-13.51a2.44,2.44,0,0,1,.92-.83,2.51,2.51,0,0,1,1.16-.28A2.43,2.43,0,0,1,92.76,369.4Z"/><path class="cls-2" d="M124.8,369a15,15,0,0,1,6.3,1.34,16,16,0,0,1,5.14,3.68,17.72,17.72,0,0,1,3.46,5.45,17.32,17.32,0,0,1,1.29,6.68,18.05,18.05,0,0,1-.58,4.57,17.8,17.8,0,0,1-1.62,4.09,17.28,17.28,0,0,1-2.55,3.49A16.79,16.79,0,0,1,133,401a15.81,15.81,0,0,1-3.86,1.73,15.19,15.19,0,0,1-8.59,0,16.16,16.16,0,0,1-3.86-1.73,16.73,16.73,0,0,1-3.28-2.68,16.55,16.55,0,0,1-2.55-3.49,18.29,18.29,0,0,1-1.63-4.09,18.05,18.05,0,0,1-.57-4.57,17.5,17.5,0,0,1,1.28-6.68,17.74,17.74,0,0,1,3.47-5.45,16,16,0,0,1,5.14-3.68A15,15,0,0,1,124.8,369Zm0,29.42a10.11,10.11,0,0,0,4.4-1,11.15,11.15,0,0,0,3.57-2.62,12.49,12.49,0,0,0,2.41-3.9,12.73,12.73,0,0,0,.89-4.78,12.91,12.91,0,0,0-3.3-8.67,11.36,11.36,0,0,0-3.57-2.64,10.49,10.49,0,0,0-8.77,0,11.68,11.68,0,0,0-3.59,2.64,12.9,12.9,0,0,0-2.43,3.91,12.75,12.75,0,0,0-.89,4.76,12.93,12.93,0,0,0,.89,4.78,12.73,12.73,0,0,0,2.43,3.9,11.46,11.46,0,0,0,3.59,2.62A10,10,0,0,0,124.8,398.43Z"/><path class="cls-2" d="M188.25,386.4a2.5,2.5,0,0,1,1,.23,2.45,2.45,0,0,1,.86.64,2.41,2.41,0,0,1,.54,2,17.64,17.64,0,0,1-2,5.66,16.69,16.69,0,0,1-3.57,4.44,16.41,16.41,0,0,1-4.78,2.93,15.36,15.36,0,0,1-9.9.43,16,16,0,0,1-3.86-1.73,16.73,16.73,0,0,1-3.28-2.68,16.55,16.55,0,0,1-2.55-3.49,17.82,17.82,0,0,1-1.63-4.09,18.05,18.05,0,0,1-.57-4.57A17.66,17.66,0,0,1,163.31,374a16.24,16.24,0,0,1,5.14-3.7,15,15,0,0,1,6.3-1.35,15.3,15.3,0,0,1,6.51,1.44,16,16,0,0,1,5.39,4.1,2.39,2.39,0,0,1,.59,1.8,2.35,2.35,0,0,1-.86,1.67,1.86,1.86,0,0,1-.75.47,2.74,2.74,0,0,1-.85.13,2.3,2.3,0,0,1-1.83-.84,11.54,11.54,0,0,0-3.74-2.87,10.41,10.41,0,0,0-4.46-1,10.15,10.15,0,0,0-4.37,1,11.56,11.56,0,0,0-3.59,2.64,12.52,12.52,0,0,0-2.43,3.91,12.75,12.75,0,0,0-.89,4.76,12.93,12.93,0,0,0,.89,4.78,12.36,12.36,0,0,0,2.43,3.9,11.35,11.35,0,0,0,3.59,2.62,10,10,0,0,0,4.37,1,10.36,10.36,0,0,0,3.24-.51,11.36,11.36,0,0,0,5.29-3.7,12.07,12.07,0,0,0,1.72-2.91H174.93a2.46,2.46,0,0,1-2.47-2.47,2.33,2.33,0,0,1,.72-1.73,2.41,2.41,0,0,1,1.75-.71Z"/><path class="cls-2" d="M232.29,400.06a2.3,2.3,0,0,1,.15,1,2.48,2.48,0,0,1-.22.9,2.31,2.31,0,0,1-.56.76,2.5,2.5,0,0,1-.85.51,2,2,0,0,1-.84.15,2.49,2.49,0,0,1-1.39-.42,2.28,2.28,0,0,1-.9-1.18L225,394.45H213.54l-2.65,7.29a2.28,2.28,0,0,1-.9,1.18,2.49,2.49,0,0,1-1.39.42l-.42,0a1.86,1.86,0,0,1-.43-.12,2.56,2.56,0,0,1-.84-.51,2.31,2.31,0,0,1-.56-.76,2.48,2.48,0,0,1-.22-.9,2.3,2.3,0,0,1,.15-1L217,370.6a2.52,2.52,0,0,1,.89-1.17,2.32,2.32,0,0,1,1.4-.45,2.42,2.42,0,0,1,1.42.45,2.48,2.48,0,0,1,.9,1.17Zm-8.86-10-4.16-11.43-4.13,11.43Z"/><path class="cls-2" d="M305.33,405.63c-1.15-1.14-2.23-2.29-3.8-4a16.63,16.63,0,0,1-11.88,4.64c-7.89,0-12.47-5.3-12.47-11.39,0-5.54,3.31-9.34,7.95-11.88v-.18a13.93,13.93,0,0,1-3.37-8.5,9.85,9.85,0,0,1,10.31-10c5.06,0,9,3.37,9,8.62,0,4.28-2.47,7.65-8.92,10.85V384c3.43,4,7.29,8.44,9.88,11.33,1.87-2.83,3.14-6.75,3.92-11.87h4.82c-1.08,6.39-2.83,11.45-5.84,15,2.17,2.29,4.28,4.58,6.69,7.17Zm-6.39-7c-2.41-2.65-6.93-7.6-11.46-12.78-2.17,1.38-5.24,4-5.24,8.26a8,8,0,0,0,8.32,8.2A11.35,11.35,0,0,0,298.94,398.64Zm-12.36-24.78c0,2.9,1.33,5.13,3.07,7.3,4.1-2.35,6.76-4.53,6.76-8,0-2.47-1.39-5.25-4.71-5.25S286.58,370.73,286.58,373.86Z"/><path class="cls-2" d="M363.75,405.63,353.44,365H359l4.82,20.56c1.2,5.06,2.29,10.12,3,14h.12c.67-4,1.93-8.86,3.32-14.1l5.42-20.5h5.49l4.94,20.62c1.15,4.82,2.23,9.64,2.84,13.92h.12c.84-4.46,2-9,3.25-14l5.37-20.5h5.36l-11.51,40.63h-5.49l-5.12-21.16a120.44,120.44,0,0,1-2.65-13.26h-.12A127.67,127.67,0,0,1,375,384.47l-5.79,21.16Z"/><path class="cls-2" d="M444.23,386.58H428.44v14.65H446v4.4H423.19V365h21.95v4.4h-16.7v12.84h15.79Z"/><path class="cls-2" d="M467.92,365h5.25v36.23h17.36v4.4H467.92Z"/><path class="cls-2" d="M511.45,365h5.25v36.23h17.36v4.4H511.45Z"/><path class="cls-2" d="M555,405.63V365h5.73l13,20.56a115.47,115.47,0,0,1,7.29,13.2l.12-.06c-.48-5.43-.6-10.37-.6-16.7V365h4.94v40.63h-5.3L567.28,385a127.8,127.8,0,0,1-7.6-13.56l-.18.06c.3,5.12.42,10,.42,16.76v17.36Z"/><path class="cls-2" d="M630.76,386.58H615v14.65h17.61v4.4H609.72V365h21.94v4.4H615v12.84h15.8Z"/><path class="cls-2" d="M653.73,399.24a18.55,18.55,0,0,0,9.4,2.65c5.37,0,8.5-2.83,8.5-6.93,0-3.8-2.17-6-7.65-8.08-6.63-2.35-10.73-5.78-10.73-11.51,0-6.33,5.24-11,13.14-11a18.39,18.39,0,0,1,9,2l-1.45,4.28a16,16,0,0,0-7.71-1.93c-5.55,0-7.66,3.31-7.66,6.09,0,3.79,2.47,5.66,8.08,7.83,6.87,2.66,10.37,6,10.37,11.94,0,6.27-4.64,11.69-14.23,11.69-3.92,0-8.2-1.14-10.37-2.59Z"/><path class="cls-2" d="M698.52,399.24a18.56,18.56,0,0,0,9.41,2.65c5.36,0,8.5-2.83,8.5-6.93,0-3.8-2.17-6-7.66-8.08-6.63-2.35-10.73-5.78-10.73-11.51,0-6.33,5.25-11,13.14-11a18.36,18.36,0,0,1,9,2l-1.44,4.28a16.12,16.12,0,0,0-7.72-1.93c-5.54,0-7.65,3.31-7.65,6.09,0,3.79,2.47,5.66,8.07,7.83,6.88,2.66,10.37,6,10.37,11.94,0,6.27-4.64,11.69-14.22,11.69-3.92,0-8.2-1.14-10.37-2.59Z"/><path class="cls-2" d="M395.72,115.23l.61,2.14A28.48,28.48,0,0,0,402,127.81c1.77,2.14,3.79,4,5.61,6.08a16.17,16.17,0,0,1,3.63,6.35,9.84,9.84,0,0,1-.89,7,20.5,20.5,0,0,1-3.65,5c0-1.1.13-2.09.07-3.09a6.16,6.16,0,0,0-1.4-3.49,29.14,29.14,0,0,0-4-3.81c-1.25-1.09-2.5-2.19-3.79-3.22a3.28,3.28,0,0,1-1.19-2.13,59.76,59.76,0,0,1-.75-9.64c-.07-3.73-.06-7.47-.09-11.21,0-.15,0-.29,0-.43Z"/><path class="cls-2" d="M370.39,156.37c2.43,4.31,6.21,6.45,10.07,8.49,2.45,1.3,5,2.4,7.12,4.3a6.05,6.05,0,0,1,2.19,6.23,12.38,12.38,0,0,1-.73,2.36c-.17.38-.31.47-.69.33-1.43-.52-2.88-1-4.32-1.5a6,6,0,0,0-2-.31c-2,0-3,1.46-2.51,3.5-1.9-.82-5.86-6.41-7.32-10.29A29.58,29.58,0,0,1,370.39,156.37Z"/><path class="cls-2" d="M420.11,156.5c1.77,6.33-3.35,19.51-9.06,23.26a3,3,0,0,0-.39-2.57,2.36,2.36,0,0,0-1.43-.87,4.37,4.37,0,0,0-2.35.14c-1.54.5-3.08,1-4.6,1.57-.48.17-.67,0-.83-.44a12.08,12.08,0,0,1-.83-3,6.35,6.35,0,0,1,2.34-5.43,29.4,29.4,0,0,1,5.88-3.65,41.37,41.37,0,0,0,7.75-4.82,14.85,14.85,0,0,0,3.21-3.83C419.87,156.71,419.89,156.54,420.11,156.5Z"/><path class="cls-2" d="M401.12,168.41a68.92,68.92,0,0,1,2.57-9.08,19.7,19.7,0,0,1,4-5.82c2.44-2.63,4.63-5.46,5.2-9.31a10.5,10.5,0,0,0-.13-3.58.69.69,0,0,1,0-.61,5,5,0,0,1,1.31,1.29,22.66,22.66,0,0,1,4.48,6.95,8.91,8.91,0,0,1-1.81,9.62,22.15,22.15,0,0,1-3.87,3.31c-2.68,1.92-5.69,3.13-8.45,4.85A25.4,25.4,0,0,0,401.12,168.41Z"/><path class="cls-2" d="M377.83,140.05c-.09.77-.22,1.53-.25,2.3a12.29,12.29,0,0,0,2.07,7.12,23.48,23.48,0,0,0,3.47,4.32A17.54,17.54,0,0,1,387.5,161c.78,2.44,1.31,4.95,2,7.45a29.09,29.09,0,0,0-5.86-3.83c-1.76-.94-3.54-1.83-5.22-2.93a20.72,20.72,0,0,1-4.9-4.22,8.78,8.78,0,0,1-1.6-8.88C373.09,145.16,375.34,142.54,377.83,140.05Z"/><path class="cls-2" d="M399.71,158.16a22.47,22.47,0,0,1-.52-3.88c-.12-1.4-.18-2.81-.41-4.2a3.52,3.52,0,0,0-7-.05c-.38,2.27-.36,4.6-.69,6.88,0,.34-.12.68-.17,1-.12,0-.18,0-.2,0a19,19,0,0,1-3.26-6.52,6.34,6.34,0,0,1,.85-4.81,18.22,18.22,0,0,1,2.93-3.54c1.17-1.19,2.36-2.37,3.52-3.57.31-.32.58-.5.94-.09,1.74,1.94,3.72,3.6,5.41,5.6a11.38,11.38,0,0,1,1.26,1.8,6.41,6.41,0,0,1,.67,4.85A22.62,22.62,0,0,1,399.71,158.16Z"/><path class="cls-2" d="M395,115.91c0-.15.07-.34-.11-.45-.2.09-.18.29-.22.45a29.55,29.55,0,0,1-2.55,6.73,34.67,34.67,0,0,1-3.73,5.44l-2,2.14a56.18,56.18,0,0,0-5.18,5.91,10.48,10.48,0,0,0-2,8.25,13.8,13.8,0,0,0,3,6,9.54,9.54,0,0,0,1.66,1.84,3.19,3.19,0,0,0,0-.32,8,8,0,0,1,3-8c1.83-1.52,3.59-3.11,5.39-4.67,0-.17.1-.22.25-.21l0,0a3.54,3.54,0,0,0,1.54-2.21,45.34,45.34,0,0,0,.67-6.47C395.11,125.49,395,120.7,395,115.91Z"/><path class="cls-2" d="M421.43,153.75v0h0Z"/><path class="cls-2" d="M376.15,138.37l2.45-2.45q.33-.57.72-1.14a38.38,38.38,0,0,1,4-4.73c.45-.47.91-1,1.35-1.44l1.91-2.08a32.65,32.65,0,0,0,3.43-5,27.1,27.1,0,0,0,2.32-6.14c.24-.6.61-1.48.81-2a1.22,1.22,0,0,1,.53-.61,3.85,3.85,0,0,1,3.14-.34,1.16,1.16,0,0,1,.8.79l1,3.47a25.82,25.82,0,0,0,5.2,9.57c.93,1.13,1.94,2.18,3,3.29.84.88,1.71,1.78,2.55,2.74a19.93,19.93,0,0,1,3.28,4.93l1.23.65a5.84,5.84,0,0,1,1.77,1.58l.21.25a29.43,29.43,0,0,1,3.77,5.19L395.11,24.16l-25,122.49A26.57,26.57,0,0,1,376.15,138.37Z"/><path class="cls-2" d="M392.35,139.19c0-.17.1-.22.25-.21Z"/><path class="cls-3" d="M310,47.68h60l-7.27,125.73a7.82,7.82,0,0,0,1.41,4.93,36.45,36.45,0,0,0,31.35,15.5c16.57-.38,30.64-9,30.82-17.42s-7.16-128.74-7.16-128.74h60L451.72,210.16s-11.55-8.62-19.81,0-15.52,23.52-37.41,24c-18,.41-33.05-15.92-40-25.7-4.64-6.57-16.85,1.71-17.94,1.8C335.67,210.35,310,47.68,310,47.68Z"/><path class="cls-3" d="M94.14,341.51a31,31,0,0,1-15.78-4.28,25.26,25.26,0,0,1-6-4.92,22.27,22.27,0,0,1-4-6.41A6.45,6.45,0,0,1,72,317.38a6.5,6.5,0,0,1,2.42-.49A6.6,6.6,0,0,1,78,318a6.49,6.49,0,0,1,2.5,3,9.78,9.78,0,0,0,2,3,12.7,12.7,0,0,0,3.09,2.36,17,17,0,0,0,4,1.55,18.75,18.75,0,0,0,4.57.55,17.82,17.82,0,0,0,5.52-.84,16.47,16.47,0,0,0,4.56-2.26,10.64,10.64,0,0,0,3-3.24,7.3,7.3,0,0,0,1.07-3.79,5.81,5.81,0,0,0-.57-2.5,6.81,6.81,0,0,0-2.17-2.41,24.69,24.69,0,0,0-4.87-2.66,74.58,74.58,0,0,0-8.34-2.87c-1.47-.45-3.12-1-4.93-1.58a58,58,0,0,1-5.54-2.16,41,41,0,0,1-5.47-3A24.29,24.29,0,0,1,71.6,297a19.36,19.36,0,0,1-3.43-5.38,17.38,17.38,0,0,1-1.31-6.89A19.9,19.9,0,0,1,69,275.7a23.85,23.85,0,0,1,5.89-7.39,28.62,28.62,0,0,1,8.69-5,30.59,30.59,0,0,1,10.54-1.81,31.61,31.61,0,0,1,8,1,30.38,30.38,0,0,1,7.22,2.9,25.6,25.6,0,0,1,5.91,4.56,22.56,22.56,0,0,1,4.15,6,6.42,6.42,0,0,1,.2,5,6.54,6.54,0,0,1-3.32,3.72,6.71,6.71,0,0,1-2.76.65,6.68,6.68,0,0,1-6-3.84,10.53,10.53,0,0,0-2-2.85,12.9,12.9,0,0,0-3.05-2.23,16.89,16.89,0,0,0-3.92-1.45,18.65,18.65,0,0,0-4.43-.52,17.88,17.88,0,0,0-5.53.84,15.93,15.93,0,0,0-4.55,2.29A11.29,11.29,0,0,0,81,281,7.16,7.16,0,0,0,80,284.77a4.88,4.88,0,0,0,.77,2.67A9.27,9.27,0,0,0,83.38,290a27.88,27.88,0,0,0,5,2.6c2.11.88,4.68,1.78,7.65,2.68,1.33.36,2.88.83,4.6,1.37a55.87,55.87,0,0,1,5.44,2.06,41.5,41.5,0,0,1,5.5,2.91,22.88,22.88,0,0,1,4.93,4.11,19.74,19.74,0,0,1,3.53,5.47,17.5,17.5,0,0,1,1.35,7.06,19.91,19.91,0,0,1-2.16,9.08,23.85,23.85,0,0,1-5.89,7.39,28.53,28.53,0,0,1-8.65,5A30.56,30.56,0,0,1,94.14,341.51Z"/><path class="cls-3" d="M95.78,296.22c1.32.36,2.85.82,4.59,1.37a51.42,51.42,0,0,1,5.34,2,41.45,41.45,0,0,1,5.38,2.84,22.63,22.63,0,0,1,4.73,3.94,18.76,18.76,0,0,1,3.35,5.2,16.55,16.55,0,0,1,1.27,6.68,18.83,18.83,0,0,1-2,8.64,23,23,0,0,1-5.65,7.09,27.4,27.4,0,0,1-8.36,4.79,29.41,29.41,0,0,1-10.24,1.75,29.86,29.86,0,0,1-8.09-1.1,29.42,29.42,0,0,1-7.19-3.05,24.22,24.22,0,0,1-5.76-4.72,21.38,21.38,0,0,1-3.83-6.13,5.34,5.34,0,0,1,0-4.29,5.44,5.44,0,0,1,3.08-3,5.49,5.49,0,0,1,5.14.52,5.38,5.38,0,0,1,2.12,2.57,10.73,10.73,0,0,0,2.16,3.25,13.91,13.91,0,0,0,3.32,2.54,18,18,0,0,0,4.25,1.64,19.59,19.59,0,0,0,4.8.58,18.56,18.56,0,0,0,5.82-.89,17.32,17.32,0,0,0,4.83-2.4,11.79,11.79,0,0,0,3.29-3.52,8.28,8.28,0,0,0,1.2-4.29,6.79,6.79,0,0,0-.66-2.91,7.7,7.7,0,0,0-2.46-2.77,24.88,24.88,0,0,0-5.07-2.78,76.06,76.06,0,0,0-8.46-2.91c-1.46-.45-3.1-1-4.9-1.57s-3.62-1.31-5.45-2.13a40.91,40.91,0,0,1-5.34-2.91,23,23,0,0,1-4.62-3.9,18.19,18.19,0,0,1-3.26-5.11,16.39,16.39,0,0,1-1.23-6.51,18.82,18.82,0,0,1,2-8.63,22.89,22.89,0,0,1,5.66-7.09,27.09,27.09,0,0,1,8.39-4.79,29.44,29.44,0,0,1,10.21-1.75,30.68,30.68,0,0,1,7.81,1,29.64,29.64,0,0,1,7,2.81,24.41,24.41,0,0,1,5.69,4.39,21.3,21.3,0,0,1,4,5.79,5.45,5.45,0,0,1,.17,4.28,5.53,5.53,0,0,1-2.84,3.18,5.68,5.68,0,0,1-2.33.55,5.57,5.57,0,0,1-3-.86,5.62,5.62,0,0,1-2.16-2.43,11.16,11.16,0,0,0-2.22-3.11,13.59,13.59,0,0,0-3.29-2.4,17.8,17.8,0,0,0-4.15-1.54,19.4,19.4,0,0,0-4.65-.55,18.87,18.87,0,0,0-5.83.89,16.85,16.85,0,0,0-4.83,2.43,12.28,12.28,0,0,0-3.29,3.56A8.36,8.36,0,0,0,79,284.77a5.84,5.84,0,0,0,.92,3.19,10.26,10.26,0,0,0,2.91,2.84A28.23,28.23,0,0,0,88,293.51Q91.26,294.84,95.78,296.22Z"/><path class="cls-3" d="M175.61,341.51a6.47,6.47,0,0,1-6.52-6.52V318.27a9.74,9.74,0,0,0-.81-4,10.51,10.51,0,0,0-2.2-3.23,10.75,10.75,0,0,0-3.23-2.2,9.87,9.87,0,0,0-4-.8H141.3V335a6.24,6.24,0,0,1-1.94,4.63,6.44,6.44,0,0,1-4.65,1.89,6.49,6.49,0,0,1-6.52-6.52V268.06a6.49,6.49,0,0,1,6.52-6.52h24.18a22.82,22.82,0,0,1,9.09,1.83,23.55,23.55,0,0,1,12.39,12.39,23.07,23.07,0,0,1-.33,18.75,24.1,24.1,0,0,1-5,7,24.23,24.23,0,0,1,5,7,22.75,22.75,0,0,1,2.15,9.76V335a6.28,6.28,0,0,1-1.94,4.63A6.44,6.44,0,0,1,175.61,341.51ZM158.89,295a9.67,9.67,0,0,0,4-.81,10.3,10.3,0,0,0,5.43-5.43,10.08,10.08,0,0,0,0-7.92,10.42,10.42,0,0,0-5.43-5.42,9.71,9.71,0,0,0-4-.81H141.3V295Z"/><path class="cls-3" d="M181.23,284.77a21.4,21.4,0,0,1-2.06,9.32,22.76,22.76,0,0,1-5.55,7.4,22.78,22.78,0,0,1,5.55,7.43,21.63,21.63,0,0,1,2.06,9.35V335a5.29,5.29,0,0,1-1.65,3.94,5.49,5.49,0,0,1-4,1.61,5.5,5.5,0,0,1-5.55-5.55V318.27a10.75,10.75,0,0,0-.89-4.35,11.69,11.69,0,0,0-2.4-3.52,11.26,11.26,0,0,0-3.53-2.4,10.71,10.71,0,0,0-4.35-.89H140.33V335a5.29,5.29,0,0,1-1.65,3.94,5.47,5.47,0,0,1-4,1.61,5.5,5.5,0,0,1-5.55-5.55V268.06a5.5,5.5,0,0,1,5.55-5.55h24.18a21.57,21.57,0,0,1,8.7,1.75,22.47,22.47,0,0,1,7.09,4.79,22.9,22.9,0,0,1,4.8,7.09A21.65,21.65,0,0,1,181.23,284.77Zm-22.34,11.17a10.71,10.71,0,0,0,4.35-.89,11.26,11.26,0,0,0,3.53-2.4,11.69,11.69,0,0,0,2.4-3.52,11.1,11.1,0,0,0,0-8.71,11.69,11.69,0,0,0-2.4-3.52,11.26,11.26,0,0,0-3.53-2.4,10.71,10.71,0,0,0-4.35-.89H140.33v22.33Z"/><path class="cls-3" d="M196.57,341.51a6.47,6.47,0,0,1-6.52-6.52V268.06a6.49,6.49,0,0,1,6.52-6.52,6.44,6.44,0,0,1,4.65,1.89,6.24,6.24,0,0,1,1.94,4.63V335a6.24,6.24,0,0,1-1.94,4.63A6.44,6.44,0,0,1,196.57,341.51Z"/><path class="cls-3" d="M196.57,262.51a5.47,5.47,0,0,1,4,1.61,5.29,5.29,0,0,1,1.65,3.94V335a5.29,5.29,0,0,1-1.65,3.94,5.47,5.47,0,0,1-4,1.61A5.5,5.5,0,0,1,191,335V268.06a5.5,5.5,0,0,1,5.55-5.55Z"/><path class="cls-3" d="M322,341.51a58.51,58.51,0,0,1-16.68-2.41A63.22,63.22,0,0,1,290,332.29a64.88,64.88,0,0,1-13.07-10.68,63.85,63.85,0,0,1-9.75-13.53h-18V335a6.27,6.27,0,0,1-1.93,4.63,6.44,6.44,0,0,1-4.65,1.89,6.47,6.47,0,0,1-6.52-6.52V268.06a6.47,6.47,0,0,1,6.52-6.52h24.18a22.77,22.77,0,0,1,9.08,1.83,23.55,23.55,0,0,1,12.39,12.39A23.2,23.2,0,0,1,287,296.22,24.19,24.19,0,0,1,279.9,304a50.41,50.41,0,0,0,17.59,17.73,48.52,48.52,0,0,0,11.69,5A47.48,47.48,0,0,0,322,328.47a47,47,0,0,0,9.5-1,51,51,0,0,0,9.18-2.86,6.06,6.06,0,0,1,2.56-.55,6.57,6.57,0,0,1,3.57,1,6.49,6.49,0,0,1,2.5,7.93,6.58,6.58,0,0,1-3.48,3.57,61.22,61.22,0,0,1-11.68,3.66A60.48,60.48,0,0,1,322,341.51ZM266.75,295a9.71,9.71,0,0,0,4-.81,10.39,10.39,0,0,0,5.43-5.43,9.91,9.91,0,0,0,0-7.85,10.51,10.51,0,0,0-2.2-3.23,10.75,10.75,0,0,0-3.23-2.2,9.87,9.87,0,0,0-4-.8h-17.6V295Zm53.91,22.22a21.56,21.56,0,0,1-8.53-1.72,22,22,0,0,1-7-4.7,22.35,22.35,0,0,1-4.7-6.94,21.39,21.39,0,0,1-1.72-8.51V268.06a5.84,5.84,0,0,1,1.72-4.21,6,6,0,0,1,8.46,0,5.78,5.78,0,0,1,1.76,4.22v27.26a9.66,9.66,0,0,0,.78,3.87,9.85,9.85,0,0,0,2.15,3.15,10.47,10.47,0,0,0,3.2,2.13,9.58,9.58,0,0,0,3.86.78,9.93,9.93,0,0,0,3.91-.78,10.33,10.33,0,0,0,3.22-2.13,9.66,9.66,0,0,0,2.93-7V268.06a5.84,5.84,0,0,1,1.72-4.21,5.72,5.72,0,0,1,4.25-1.76,6,6,0,0,1,6,6v27.26a21.39,21.39,0,0,1-1.72,8.51,22.08,22.08,0,0,1-4.73,6.95,22.63,22.63,0,0,1-7,4.69A21.61,21.61,0,0,1,320.66,317.19Z"/><path class="cls-3" d="M348.34,328.41a5.61,5.61,0,0,1-2.95,7.33,59,59,0,0,1-23.43,4.8,57.32,57.32,0,0,1-16.4-2.37,61.89,61.89,0,0,1-15-6.71A63.54,63.54,0,0,1,277.64,321a62.41,62.41,0,0,1-9.86-13.84h-19.6V335a5.28,5.28,0,0,1-1.64,3.94,5.49,5.49,0,0,1-4,1.61A5.5,5.5,0,0,1,237,335V268.06a5.5,5.5,0,0,1,5.55-5.55h24.18a21.64,21.64,0,0,1,8.7,1.75,22.51,22.51,0,0,1,11.88,11.88,22.25,22.25,0,0,1-1.13,19.6,23,23,0,0,1-7.6,7.94A51.56,51.56,0,0,0,297,322.56a49.77,49.77,0,0,0,11.92,5.1,48.42,48.42,0,0,0,22.75.79,51.28,51.28,0,0,0,9.35-2.91,5.08,5.08,0,0,1,2.19-.48,5.54,5.54,0,0,1,3.05.89A5.36,5.36,0,0,1,348.34,328.41ZM248.18,295.94h18.57a10.75,10.75,0,0,0,4.35-.89,11.36,11.36,0,0,0,5.92-5.92,10.6,10.6,0,0,0,.9-4.36,10.43,10.43,0,0,0-.9-4.28,11.65,11.65,0,0,0-2.39-3.53,11.53,11.53,0,0,0-3.53-2.39,10.58,10.58,0,0,0-4.35-.89H248.18Zm72.48,20.28a20.44,20.44,0,0,1-8.15-1.65,21.09,21.09,0,0,1-6.68-4.48,21.38,21.38,0,0,1-4.49-6.65,20.32,20.32,0,0,1-1.64-8.12V268.06a4.87,4.87,0,0,1,1.44-3.53,5,5,0,0,1,8.56,3.53v27.26a10.75,10.75,0,0,0,3.22,7.71,11.46,11.46,0,0,0,3.5,2.33,10.61,10.61,0,0,0,4.24.86,10.84,10.84,0,0,0,4.28-.86,11.25,11.25,0,0,0,3.53-2.33,10.65,10.65,0,0,0,3.22-7.71V268.06a4.87,4.87,0,0,1,1.44-3.53,5,5,0,0,1,8.56,3.53v27.26a20.15,20.15,0,0,1-1.64,8.12,21,21,0,0,1-4.52,6.65,21.56,21.56,0,0,1-6.71,4.48A20.45,20.45,0,0,1,320.66,316.22Z"/><path class="cls-3" d="M362.42,341.58a6.24,6.24,0,0,1-4.63-1.94A6.44,6.44,0,0,1,355.9,335V268.06a6.49,6.49,0,0,1,6.52-6.52,6.44,6.44,0,0,1,4.65,1.89,6.24,6.24,0,0,1,1.94,4.63v25l29.58-29.58a6.38,6.38,0,0,1,4.66-1.93,6.68,6.68,0,0,1,2.49.48,5.81,5.81,0,0,1,2.13,1.48,6.51,6.51,0,0,1,0,9.22l-28.63,28.63,28.84,28.84a6.56,6.56,0,0,1-4.66,11.18,6.5,6.5,0,0,1-4.59-1.93L369,309.65V335a6.59,6.59,0,0,1-6.59,6.59Z"/><path class="cls-3" d="M407.36,330.88a5.58,5.58,0,0,1-4,9.52,5.6,5.6,0,0,1-2.06-.41,5.45,5.45,0,0,1-1.85-1.23L368,307.31V335a5.63,5.63,0,0,1-5.62,5.62,5.31,5.31,0,0,1-3.94-1.65,5.47,5.47,0,0,1-1.61-4V268.06a5.5,5.5,0,0,1,5.55-5.55,5.47,5.47,0,0,1,4,1.61,5.29,5.29,0,0,1,1.65,3.94v27.33l31.24-31.24a5.42,5.42,0,0,1,4-1.64,5.71,5.71,0,0,1,2.12.41,5,5,0,0,1,1.79,1.23,5.55,5.55,0,0,1,0,7.88l-29.32,29.32Z"/><path class="cls-3" d="M466.62,341.51A6.47,6.47,0,0,1,460.1,335V307.53H427.92V335a6.27,6.27,0,0,1-1.93,4.63,6.46,6.46,0,0,1-4.65,1.89,6.47,6.47,0,0,1-6.52-6.52V268.06a6.43,6.43,0,0,1,1.88-4.65,6.26,6.26,0,0,1,4.64-1.94,6.59,6.59,0,0,1,6.58,6.59v27.46H460.1V268.06a6.4,6.4,0,0,1,1.89-4.65,6.22,6.22,0,0,1,4.63-1.94,6.57,6.57,0,0,1,6.58,6.59V335a6.27,6.27,0,0,1-1.93,4.63A6.44,6.44,0,0,1,466.62,341.51Z"/><path class="cls-3" d="M466.62,262.44a5.63,5.63,0,0,1,5.62,5.62V335a5.29,5.29,0,0,1-1.65,3.94,5.47,5.47,0,0,1-4,1.61,5.5,5.5,0,0,1-5.55-5.55V306.56H427V335a5.28,5.28,0,0,1-1.64,3.94,5.49,5.49,0,0,1-4,1.61,5.5,5.5,0,0,1-5.55-5.55V268.06a5.43,5.43,0,0,1,1.61-4,5.28,5.28,0,0,1,3.94-1.65,5.62,5.62,0,0,1,5.61,5.62v28.43h34.12V268.06a5.47,5.47,0,0,1,1.61-4A5.29,5.29,0,0,1,466.62,262.44Z"/><path class="cls-3" d="M533.21,341.51a6.54,6.54,0,0,1-3.69-1.12,6.28,6.28,0,0,1-2.43-3.15l-5.8-15.94H496.55l-5.8,15.94a6.28,6.28,0,0,1-2.43,3.15,6.54,6.54,0,0,1-3.69,1.12,8,8,0,0,1-1.09-.08,5,5,0,0,1-1.21-.34,6.88,6.88,0,0,1-2.19-1.34,6.46,6.46,0,0,1-1.49-2,6.58,6.58,0,0,1-.6-2.41,6.33,6.33,0,0,1,.4-2.59l24.32-66.92a6.67,6.67,0,0,1,2.36-3.12,6.2,6.2,0,0,1,3.76-1.22,6.4,6.4,0,0,1,3.78,1.21,6.72,6.72,0,0,1,2.4,3.12l24.32,66.94a6.26,6.26,0,0,1,.4,2.58,6.79,6.79,0,0,1-.6,2.41,6.46,6.46,0,0,1-1.49,2,7,7,0,0,1-2.21,1.34A5.53,5.53,0,0,1,533.21,341.51ZM517,309.36l-8.07-22.15-8,22.15Z"/><path class="cls-3" d="M538.48,333.07a5.24,5.24,0,0,1,.34,2.19,5.53,5.53,0,0,1-.51,2.06A5.37,5.37,0,0,1,537,339a6,6,0,0,1-1.92,1.17,4.77,4.77,0,0,1-1.91.34,5.57,5.57,0,0,1-3.16-1,5.24,5.24,0,0,1-2-2.67l-6-16.58h-26.1l-6,16.58a5.24,5.24,0,0,1-2,2.67,5.57,5.57,0,0,1-3.16,1,6,6,0,0,1-.95-.07,4.32,4.32,0,0,1-1-.27A6,6,0,0,1,480.8,339a5.37,5.37,0,0,1-1.27-1.71,5.53,5.53,0,0,1-.51-2.06,5.24,5.24,0,0,1,.34-2.19l24.32-66.93a5.7,5.7,0,0,1,2-2.67,5.24,5.24,0,0,1,3.19-1,5.4,5.4,0,0,1,3.22,1,5.7,5.7,0,0,1,2,2.67Zm-20.14-22.74-9.45-26-9.39,26Z"/><path class="cls-3" d="M606.57,341.51a6.36,6.36,0,0,1-4.58-1.89,6.27,6.27,0,0,1-1.93-4.63v-42.5l-15.53,26.82a6.55,6.55,0,0,1-2.36,2.4,6.32,6.32,0,0,1-3.27.89,6.55,6.55,0,0,1-3.3-.88,6.63,6.63,0,0,1-2.41-2.41l-15.45-26.8V335a6.24,6.24,0,0,1-1.94,4.63,6.42,6.42,0,0,1-4.65,1.89,6.49,6.49,0,0,1-6.52-6.52V268.06a6.28,6.28,0,0,1,1.38-4,6.36,6.36,0,0,1,5.17-2.58,6.6,6.6,0,0,1,2.5.5,6.4,6.4,0,0,1,3.17,2.77l22,38.15,22-38.14a6.39,6.39,0,0,1,3.18-2.78,6.6,6.6,0,0,1,2.5-.5,6.67,6.67,0,0,1,1.7.22,6.84,6.84,0,0,1,3.47,2.36,6.27,6.27,0,0,1,1.37,4V335a6.25,6.25,0,0,1-1.93,4.63A6.46,6.46,0,0,1,606.57,341.51Z"/><path class="cls-3" d="M608.08,262.65a5.87,5.87,0,0,1,2.95,2,5.34,5.34,0,0,1,1.16,3.39V335a5.32,5.32,0,0,1-1.64,3.94,5.49,5.49,0,0,1-4,1.61,5.41,5.41,0,0,1-3.9-1.61A5.28,5.28,0,0,1,601,335v-46.1l-17.34,29.93a5.55,5.55,0,0,1-2,2.06,5.33,5.33,0,0,1-2.77.75,5.61,5.61,0,0,1-4.87-2.81l-17.26-29.93V335a5.32,5.32,0,0,1-1.64,3.94,5.49,5.49,0,0,1-4,1.61A5.5,5.5,0,0,1,545.6,335V268.06a5.29,5.29,0,0,1,1.17-3.39,5.85,5.85,0,0,1,2.94-2,5.55,5.55,0,0,1,3.6.24,5.43,5.43,0,0,1,2.71,2.36l22.88,39.6,22.88-39.6a5.43,5.43,0,0,1,2.71-2.36A5.53,5.53,0,0,1,608.08,262.65Z"/><path class="cls-3" d="M628.29,341.51a6.47,6.47,0,0,1-6.52-6.52V268.06a6.47,6.47,0,0,1,6.52-6.52,6.44,6.44,0,0,1,4.65,1.89,6.28,6.28,0,0,1,1.94,4.63V335a6.28,6.28,0,0,1-1.94,4.63A6.44,6.44,0,0,1,628.29,341.51Z"/><path class="cls-3" d="M628.29,262.51a5.47,5.47,0,0,1,4,1.61,5.29,5.29,0,0,1,1.65,3.94V335a5.29,5.29,0,0,1-1.65,3.94,5.47,5.47,0,0,1-4,1.61,5.5,5.5,0,0,1-5.55-5.55V268.06a5.5,5.5,0,0,1,5.55-5.55Z"/><path class="cls-3" d="M693.92,341.51a6.68,6.68,0,0,1-3.08-.76,6.15,6.15,0,0,1-2.4-2.15L656.59,290v45a6.27,6.27,0,0,1-1.93,4.63,6.46,6.46,0,0,1-4.66,1.89,6.47,6.47,0,0,1-6.51-6.52V268.06a6.22,6.22,0,0,1,1.94-4.67,6.48,6.48,0,0,1,4.64-1.85,6.34,6.34,0,0,1,5.46,2.88L687.33,313v-45a6.24,6.24,0,0,1,1.94-4.63,6.44,6.44,0,0,1,4.65-1.89,6.45,6.45,0,0,1,6.51,6.52V335a6.31,6.31,0,0,1-1.9,4.67A6.4,6.4,0,0,1,693.92,341.51Z"/><path class="cls-3" d="M693.92,262.51a5.5,5.5,0,0,1,5.55,5.55V335a5.33,5.33,0,0,1-1.61,4,5.44,5.44,0,0,1-3.94,1.58,5.72,5.72,0,0,1-2.64-.65,5.15,5.15,0,0,1-2-1.82l-33.64-51.31V335a5.32,5.32,0,0,1-1.64,3.94,5.49,5.49,0,0,1-4,1.61,5.5,5.5,0,0,1-5.54-5.55V268.06a5.24,5.24,0,0,1,1.64-4,5.54,5.54,0,0,1,4-1.58,5.37,5.37,0,0,1,4.66,2.47l33.57,51.31V268.06a5.32,5.32,0,0,1,1.64-3.94A5.49,5.49,0,0,1,693.92,262.51Z"/><path class="cls-3" d="M715.56,341.51A6.49,6.49,0,0,1,709,335V268.06a6.47,6.47,0,0,1,6.52-6.52,6.44,6.44,0,0,1,4.65,1.89,6.24,6.24,0,0,1,1.94,4.63V335a6.24,6.24,0,0,1-1.94,4.63A6.42,6.42,0,0,1,715.56,341.51Z"/><path class="cls-3" d="M715.56,262.51a5.51,5.51,0,0,1,4,1.61,5.32,5.32,0,0,1,1.64,3.94V335a5.32,5.32,0,0,1-1.64,3.94,5.51,5.51,0,0,1-4,1.61A5.5,5.5,0,0,1,710,335V268.06a5.5,5.5,0,0,1,5.55-5.55Z"/><path class="cls-3" d="M327.23,292.7a6.54,6.54,0,1,1-13.07,0c0-3.61,2.93-20.67,6.54-20.67S327.23,289.09,327.23,292.7Z"/></svg>